<svg width="16" height="17" viewBox="0 0 16 17" fill="none" xmlns="http://www.w3.org/2000/svg">
<path id="Subtract" fill-rule="evenodd" clip-rule="evenodd" d="M2 0.5C0.895431 0.5 0 1.39543 0 2.5V14.5C0 15.6046 0.895431 16.5 2 16.5H14C15.1046 16.5 16 15.6046 16 14.5V2.5C16 1.39543 15.1046 0.5 14 0.5H2ZM12 5.9C11.4376 5.34083 10.52 5.37208 9.99694 5.96822L6.94142 9.45057L6.01252 8.41017C5.48289 7.81696 4.56395 7.78963 4 8.35032L6.19372 10.7648C6.59338 11.2047 7.28621 11.201 7.68114 10.7569L9.24347 8.99992L12 5.9Z" fill="#3A7E24"/>
</svg>
