<svg width="16" height="17" viewBox="0 0 16 17" fill="none" xmlns="http://www.w3.org/2000/svg">
<g id="Frame 427322031">
<path id="Vector" d="M8.90467 14.4798V16.5H6.95888V14.641C5.64516 14.579 4.36864 14.2072 3.625 13.7982L4.20751 11.5054C5.02555 11.9517 6.19048 12.373 7.46705 12.373C8.60717 12.373 9.36332 11.9268 9.36332 11.1585C9.36332 10.4149 8.73127 9.94393 7.26882 9.44815C5.17431 8.74166 3.73661 7.76257 3.73661 5.85402C3.73661 4.10653 4.95115 2.75561 7.04571 2.35903V0.5H8.96679V2.22271C10.2558 2.25988 11.1481 2.55733 11.8297 2.86713L11.2472 5.08555C10.7515 4.85005 9.8343 4.39159 8.4215 4.39159C7.145 4.39159 6.73591 4.96169 6.73591 5.50698C6.73591 6.13903 7.41751 6.57283 9.11555 7.16773C11.4455 7.99814 12.3751 9.07635 12.3751 10.861C12.3751 12.6085 11.1603 14.1081 8.90467 14.4798Z" fill="#E63528"/>
</g>
</svg>
