<svg width="16" height="17" viewBox="0 0 16 17" fill="none" xmlns="http://www.w3.org/2000/svg">
<path id="Subtract" fill-rule="evenodd" clip-rule="evenodd" d="M16 8.5C16 12.9183 12.4182 16.5 8 16.5C3.58172 16.5 0 12.9183 0 8.5C0 4.08176 3.58172 0.5 8 0.5C12.4182 0.5 16 4.08176 16 8.5ZM4 11.9103L7.15655 8.74766L4.84341 6.43002C4.37734 5.96305 4.37734 5.20689 4.84341 4.73992L7.99996 7.9026L11.1566 4.73984C11.6227 5.20682 11.6227 5.96297 11.1566 6.42995L8.84338 8.74766L12 11.9104C11.5345 12.3769 10.7787 12.3769 10.3132 11.9104L7.99996 9.59271L5.68682 11.9103C5.22129 12.3768 4.46554 12.3768 4 11.9103Z" fill="#F7764C"/>
</svg>
