<svg width="89" height="88" viewBox="0 0 89 88" fill="none" xmlns="http://www.w3.org/2000/svg">
<g id="Frame" clip-path="url(#clip0_13_1361)">
<path id="Union" fill-rule="evenodd" clip-rule="evenodd" d="M22.7143 16H30.1429C32.619 16 33.8571 17.2381 33.8571 19.7142V67.9993C33.8571 70.4754 32.619 71.7135 30.1429 71.7135H22.7143C20.2381 71.7135 19 70.4754 19 67.9993V19.7142C19 17.2381 20.2381 16 22.7143 16ZM41.2856 42.0008H48.7142C51.1904 42.0008 52.4285 43.2389 52.4285 45.7151V68.0005C52.4285 70.4766 51.1904 71.7147 48.7142 71.7147H41.2856C38.8095 71.7147 37.5714 70.4766 37.5714 68.0005V45.7151C37.5714 43.2389 38.8095 42.0008 41.2856 42.0008ZM67.2857 33.6435H59.8571C57.381 33.6435 56.1429 34.8816 56.1429 37.3578V68.0002C56.1429 70.4764 57.381 71.7144 59.8571 71.7144H67.2857C69.7619 71.7144 71 70.4764 71 68.0002V37.3578C71 34.8816 69.7619 33.6435 67.2857 33.6435Z" fill="#003399"/>
<rect id="Rectangle 3" x="2.5" y="1.5" width="85" height="85" rx="10.5" stroke="#003399" stroke-width="3"/>
</g>
<defs>
<clipPath id="clip0_13_1361">
<rect width="88" height="88" fill="white" transform="translate(0.5)"/>
</clipPath>
</defs>
</svg>
