<svg width="89" height="88" viewBox="0 0 89 88" fill="none" xmlns="http://www.w3.org/2000/svg">
<g id="Frame" clip-path="url(#clip0_13_1371)">
<rect id="Rectangle 3" x="2.5" y="1.5" width="85" height="85" rx="10.5" stroke="#003399" stroke-width="3"/>
<path id="Vector" d="M45.0031 41.9563C44.4642 41.9361 43.9362 41.7984 43.456 41.553L23.8679 32.3343C23.2924 32.0765 22.8038 31.6578 22.4609 31.1286C22.1181 30.5993 21.9356 29.9822 21.9356 29.3516C21.9356 28.7211 22.1181 28.1039 22.4609 27.5747C22.8038 27.0455 23.2924 26.6267 23.8679 26.369L42.4835 17.561C43.2698 17.1915 44.1279 17 44.9966 17C45.8654 17 46.7234 17.1915 47.5097 17.561L66.1321 26.369C66.7076 26.6267 67.1962 27.0455 67.5391 27.5747C67.8819 28.1039 68.0644 28.7211 68.0644 29.3516C68.0644 29.9822 67.8819 30.5993 67.5391 31.1286C67.1962 31.6578 66.7076 32.0765 66.1321 32.3343L46.5441 41.5462C46.0675 41.797 45.5406 41.9371 45.0025 41.9563H45.0031ZM39.9442 71.8804C39.441 71.8799 38.9457 71.7549 38.5025 71.5165L20.8051 63.2173C20.2553 62.9301 19.7957 62.4965 19.4771 61.9643C19.1585 61.4321 18.9935 60.8221 19.0002 60.2019V39.0421C19.0046 38.4582 19.1597 37.8854 19.4504 37.3791C19.7411 36.8728 20.1576 36.4501 20.6596 36.1519C21.1244 35.8885 21.6496 35.75 22.1839 35.75C22.7182 35.75 23.2434 35.8885 23.7082 36.1519L41.3723 44.4426C41.8962 44.7273 42.3369 45.1436 42.6511 45.6503C42.9653 46.1571 43.1422 46.7369 43.1643 47.3327V68.5209C43.1583 69.1027 43.0043 69.6733 42.7167 70.1789C42.429 70.6846 42.0173 71.1087 41.5203 71.4111C41.0436 71.6974 40.5023 71.8588 39.9467 71.8804H39.9442ZM50.0558 71.8804C49.504 71.8786 48.9619 71.7351 48.4815 71.4635C47.9841 71.1615 47.5719 70.7377 47.2838 70.2321C46.9957 69.7265 46.8413 69.1558 46.8351 68.574V47.3259C46.8483 46.7353 47.015 46.1582 47.3188 45.6514C47.6226 45.1447 48.0531 44.7257 48.5679 44.4358L66.3498 36.0902C66.8128 35.8462 67.3307 35.7247 67.854 35.7374C68.3773 35.7502 68.8886 35.8967 69.3392 36.163C69.8428 36.4594 70.2607 36.8817 70.5517 37.3884C70.8427 37.8951 70.9969 38.4688 70.9992 39.0532V60.2038C71.0126 60.8165 70.8582 61.4213 70.5528 61.9528C70.2475 62.4842 69.8026 62.9221 69.2665 63.2191L51.5037 71.5233C51.0587 71.762 50.5607 71.8848 50.0558 71.8804Z" fill="#003399"/>
</g>
<defs>
<clipPath id="clip0_13_1371">
<rect width="88" height="88" fill="white" transform="translate(0.5)"/>
</clipPath>
</defs>
</svg>
