<svg width="89" height="88" viewBox="0 0 89 88" fill="none" xmlns="http://www.w3.org/2000/svg">
<g id="Frame" clip-path="url(#clip0_13_1378)">
<rect id="Rectangle 3" x="2.5" y="1.5" width="85" height="85" rx="10.5" stroke="#003399" stroke-width="3"/>
<path id="Vector" d="M45 14C45.064 14 45.12 14.028 45.168 14.068C45.184 14.072 45.184 14.08 45.192 14.088C46.044 14.884 49.884 18.288 54.38 19.768C58.924 21.268 69 21.504 69.052 21.512C70.112 21.572 70.948 22.348 71 23.3V43.94L70.996 44.84L70.992 48.768V50C70.992 63.392 50.64 71.524 45.96 73.224L45.688 73.324L45.396 73.388C45.1375 73.44 44.8715 73.4427 44.612 73.396C44.3832 73.3571 44.1602 73.2899 43.948 73.196C39.132 71.44 19 63.32 19 50V23.304C19.052 22.352 19.888 21.584 20.948 21.516C21 21.508 31.076 21.264 35.62 19.772C40.124 18.292 43.956 14.88 44.808 14.092C44.88 14.028 44.932 14 45 14ZM65.876 43.804H45V66.196C47.6492 65.5546 50.1768 64.4874 52.484 63.036C54.748 61.612 57.344 59.996 59.856 57.3C63.484 53.38 65.184 48.884 65.876 43.804ZM45 22.06C41.352 23.744 37.972 24.92 34.872 25.58C31.768 26.244 28.396 26.696 24.752 26.94V43.8H45V22.06Z" fill="#003399"/>
</g>
<defs>
<clipPath id="clip0_13_1378">
<rect width="88" height="88" fill="white" transform="translate(0.5)"/>
</clipPath>
</defs>
</svg>
