<svg width="89" height="88" viewBox="0 0 89 88" fill="none" xmlns="http://www.w3.org/2000/svg">
<g id="Frame" clip-path="url(#clip0_13_1385)">
<rect id="Rectangle 3" x="2.5" y="1.5" width="85" height="85" rx="10.5" stroke="#003399" stroke-width="3"/>
<path id="Vector" d="M62.3333 18H27.6667C22.8783 18 19 21.8783 19 26.6667V43.9783H25.37L32.1517 39.2117C32.4099 39.0297 32.7049 38.9064 33.0158 38.8504C33.3268 38.7945 33.6462 38.8072 33.9517 38.8877C34.2572 38.9682 34.5414 39.1146 34.7844 39.3165C35.0274 39.5184 35.2233 39.771 35.3583 40.0567L40.1467 50.11L46.5817 31.4767C46.8633 30.675 47.6 30.09 48.445 30.025C49.29 29.96 50.1133 30.3933 50.525 31.1517L56.9817 43.025H65.41C66.6017 43.025 67.5767 44 67.5767 45.1917C67.5767 46.3833 66.6017 47.3583 65.41 47.3583H55.6817C54.88 47.3583 54.165 46.925 53.775 46.2317L49.03 37.5433L42.465 56.5233C42.1833 57.3467 41.425 57.9317 40.5367 57.975H40.4067C39.5833 57.975 38.8033 57.4983 38.4567 56.74L32.4983 44.2383L27.255 47.9217C26.8867 48.1817 26.4533 48.3117 26.02 48.3117H19V61.3333C19 66.1217 22.8783 70 27.6667 70H62.3333C67.1217 70 71 66.1217 71 61.3333V26.6667C71 21.8783 67.1217 18 62.3333 18Z" fill="#003399"/>
</g>
<defs>
<clipPath id="clip0_13_1385">
<rect width="88" height="88" fill="white" transform="translate(0.5)"/>
</clipPath>
</defs>
</svg>
