<svg width="89" height="88" viewBox="0 0 89 88" fill="none" xmlns="http://www.w3.org/2000/svg">
<g id="Frame" clip-path="url(#clip0_13_1407)">
<rect id="Rectangle 3" x="2.5" y="1.5" width="85" height="85" rx="10.5" stroke="#003399" stroke-width="3"/>
<path id="Vector" d="M58.2889 44.3096C58.6402 44.1068 59.0388 44 59.4444 44C59.8501 44 60.2487 44.1068 60.6 44.3096L69.8444 49.6483C70.1958 49.8511 70.4875 50.1429 70.6904 50.4942C70.8932 50.8455 71 51.244 71 51.6497V62.327C70.9992 62.7319 70.892 63.1295 70.6892 63.48C70.4864 63.8304 70.1951 64.1214 69.8444 64.3238L60.6 69.6625C60.2487 69.8654 59.8501 69.9721 59.4444 69.9721C59.0388 69.9721 58.6402 69.8654 58.2889 69.6625L49.0444 64.3238C48.6931 64.121 48.4014 63.8293 48.1985 63.478C47.9957 63.1266 47.8889 62.7281 47.8889 62.3224V51.6451C47.8897 51.2402 47.9969 50.8426 48.1997 50.4922C48.4025 50.1418 48.6938 49.8507 49.0444 49.6483L58.2889 44.3096ZM29.4 44.3096C29.7513 44.1068 30.1499 44 30.5556 44C30.9612 44 31.3598 44.1068 31.7111 44.3096L40.9556 49.6483C41.3069 49.8511 41.5986 50.1429 41.8015 50.4942C42.0043 50.8455 42.1111 51.244 42.1111 51.6497V62.327C42.1103 62.7319 42.0031 63.1295 41.8003 63.48C41.5975 63.8304 41.3062 64.1214 40.9556 64.3238L31.7111 69.6625C31.3598 69.8654 30.9612 69.9721 30.5556 69.9721C30.1499 69.9721 29.7513 69.8654 29.4 69.6625L20.1556 64.3238C19.8042 64.121 19.5125 63.8293 19.3096 63.478C19.1068 63.1266 19 62.7281 19 62.3224V51.6451C19.0008 51.2402 19.108 50.8426 19.3108 50.4922C19.5136 50.1418 19.8049 49.8507 20.1556 49.6483L29.4 44.3096ZM43.8676 18.3096C44.2189 18.1068 44.6174 18 45.0231 18C45.4288 18 45.8273 18.1068 46.1787 18.3096L55.4231 23.6483C55.7744 23.8511 56.0662 24.1429 56.269 24.4942C56.4719 24.8455 56.5787 25.244 56.5787 25.6497V36.3271C56.5778 36.7319 56.4707 37.1295 56.2679 37.48C56.0651 37.8304 55.7738 38.1214 55.4231 38.3239L46.1787 43.6625C45.8273 43.8654 45.4288 43.9721 45.0231 43.9721C44.6174 43.9721 44.2189 43.8654 43.8676 43.6625L34.6231 38.3239C34.2718 38.121 33.98 37.8293 33.7772 37.478C33.5744 37.1266 33.4676 36.7281 33.4676 36.3224V25.6451C33.4684 25.2402 33.5756 24.8426 33.7784 24.4922C33.9812 24.1418 34.2725 23.8507 34.6231 23.6483L43.8676 18.3096Z" fill="#003399"/>
</g>
<defs>
<clipPath id="clip0_13_1407">
<rect width="88" height="88" fill="white" transform="translate(0.5)"/>
</clipPath>
</defs>
</svg>
