<svg width="89" height="88" viewBox="0 0 89 88" fill="none" xmlns="http://www.w3.org/2000/svg">
<g id="Frame" clip-path="url(#clip0_13_1414)">
<rect id="Rectangle 3" x="2.5" y="1.5" width="85" height="85" rx="10.5" stroke="#003399" stroke-width="3"/>
<g id="Frame_2">
<path id="Vector" d="M42.9278 18.0996V35.2076C38.1398 36.4116 35.2278 41.2836 36.4318 46.0716C37.6358 50.8596 42.5078 53.7716 47.2958 52.5676C50.4878 51.7556 52.9798 49.2636 53.7918 46.0716H70.8998C69.6958 60.3236 57.1518 70.8796 42.9278 69.6476C28.7038 68.4156 18.1198 55.9276 19.3238 41.6756C20.3878 29.1316 30.3558 19.1636 42.9278 18.0996ZM47.4078 18.0996C59.9238 19.1916 69.8358 29.1036 70.8998 41.5916H53.7918C52.9798 38.4556 50.5158 36.0196 47.4078 35.1796V18.0996Z" fill="#003399"/>
</g>
</g>
<defs>
<clipPath id="clip0_13_1414">
<rect width="88" height="88" fill="white" transform="translate(0.5)"/>
</clipPath>
</defs>
</svg>
