<svg width="89" height="88" viewBox="0 0 89 88" fill="none" xmlns="http://www.w3.org/2000/svg">
<g id="Frame" clip-path="url(#clip0_13_1422)">
<rect id="Rectangle 3" x="2.5" y="1.5" width="85" height="85" rx="10.5" stroke="#003399" stroke-width="3"/>
<path id="Vector" d="M41.8327 56.747L41.9404 57.3131L69.3925 51.4404L69.2866 50.89L41.8327 56.747ZM41.9403 58.4602L42.0315 58.9346L69.4851 53.0616L69.3925 52.5874L41.9403 58.4602ZM42.0164 60.3876L42.1075 60.862L69.5613 54.9884L69.4702 54.5141L42.0164 60.3876ZM70.6471 49.2992L40.5333 55.585C39.7522 58.1242 39.7984 60.5862 40.7768 63.0485L70.2499 56.1661L70.6621 58.0472L40.4407 65.1135L39.5535 64.9604L19.6708 52.1893C18.57 49.6046 18.2175 46.9894 19.6708 44.2979L21.6124 43.9917V44.6646L47.0932 50.5688C47.7982 48.7788 48.2403 46.4846 47.2769 44.4047L21.4153 39.0061L21.6587 37.1556L21.7812 37.1093H21.8126L23.3569 36.62L23.4182 34.9681L47.1096 40.9022C47.7355 39.0979 48.1178 37.3079 47.2933 35.2131L23.357 29.7525V27.2448L42.2002 22.2891L64.0246 26.8774C65.1717 29.0954 64.8819 31.1595 64.0246 33.1632L62.4504 34.1116L65.3554 34.5701C66.61 36.8948 66.2889 39.1435 65.3554 41.3615L60.5535 44.4354L70.7085 47.2955L70.6471 49.2992Z" fill="#003399"/>
</g>
<defs>
<clipPath id="clip0_13_1422">
<rect width="88" height="88" fill="white" transform="translate(0.5)"/>
</clipPath>
</defs>
</svg>
