<?xml version="1.0" standalone="no"?><!DOCTYPE svg PUBLIC "-//W3C//DTD SVG 1.1//EN" "http://www.w3.org/Graphics/SVG/1.1/DTD/svg11.dtd"><svg t="1705061353052" class="icon" viewBox="0 0 1024 1024" version="1.1" xmlns="http://www.w3.org/2000/svg" p-id="5298" xmlns:xlink="http://www.w3.org/1999/xlink" width="200" height="200"><path d="M878.41 912.56H146.49c-39.47 0-71.58-32.11-71.58-71.58V282.97c0-39.47 32.11-71.58 71.58-71.58H878.4c39.47 0 71.58 32.11 71.58 71.58v558.02c0.01 39.47-32.1 71.57-71.57 71.57zM146.49 259.11c-13.16 0-23.86 10.71-23.86 23.86v558.02c0 13.15 10.7 23.86 23.86 23.86H878.4c13.16 0 23.86-10.71 23.86-23.86V282.97c0-13.15-10.7-23.86-23.86-23.86H146.49z" p-id="5299" fill="#19506d"></path><path d="M310.74 116.71h47.72v231.87h-47.72zM666.45 116.71h47.72v231.87h-47.72z" p-id="5300" fill="#19506d"></path><path d="M363.48 906.74H225.9V693.49h137.58v213.25z m-101.51-36.07h65.44V729.56h-65.44v141.11zM575.06 909.93H431.1V633.99h143.96v275.94z m-101.51-42.45h59.05V676.44h-59.05v191.04zM799 913.55H647.8V527.61H799v385.94z m-101.5-49.7h51.8V577.31h-51.8v286.54zM240 635.62l-13.2-47.91L433 530.9l-23.87-77.89 326.27-76.33 11.32 48.4-274.49 64.21 23.28 75.94z" p-id="5301" fill="#19506d"></path></svg>