<?xml version="1.0" standalone="no"?><!DOCTYPE svg PUBLIC "-//W3C//DTD SVG 1.1//EN" "http://www.w3.org/Graphics/SVG/1.1/DTD/svg11.dtd"><svg t="1705061407787" class="icon" viewBox="0 0 1024 1024" version="1.1" xmlns="http://www.w3.org/2000/svg" p-id="8566" xmlns:xlink="http://www.w3.org/1999/xlink" width="200" height="200"><path d="M608.213333 101.248c24.192 0 43.818667 19.626667 43.818667 43.776v175.189333c0 24.192-19.626667 43.776-43.818667 43.776H554.24v79.018667l251.818667 0.042667c16.64 0 30.336 12.373333 32.512 28.373333l0.298666 4.48v173.312h54.741334c24.192 0 43.818667 19.626667 43.818666 43.818667v175.146666c0 24.192-19.626667 43.776-43.818666 43.776h-175.146667c-24.192 0-43.776-19.626667-43.776-43.776v-175.146666c0-24.192 19.626667-43.818667 43.776-43.818667h54.741333l-0.042666-140.501333H269.525333v140.501333h54.784c24.192 0 43.776 19.626667 43.776 43.818667v175.146666c0 24.192-19.626667 43.776-43.776 43.776H149.162667c-24.192 0-43.776-19.626667-43.776-43.776v-175.146666c0-24.192 19.584-43.818667 43.776-43.818667h54.741333v-173.312c0-16.64 12.373333-30.378667 28.373333-32.554667l4.437334-0.298666h251.818666V363.946667l-55.466666 0.042666c-24.192 0-43.776-19.626667-43.776-43.776V145.024c0-24.149333 19.626667-43.776 43.776-43.776h175.146666zM302.378667 714.88H171.008v131.413333h131.413333v-131.413333z m569.258666 0H740.266667v131.413333h131.413333v-131.413333zM586.325333 166.912h-131.413333v131.413333h131.413333v-131.413333z" fill="#19506d" p-id="8567"></path></svg>