<?xml version="1.0" encoding="UTF-8" standalone="no"?>
<!DOCTYPE svg PUBLIC "-//W3C//DTD SVG 1.1//EN" "http://www.w3.org/Graphics/SVG/1.1/DTD/svg11.dtd">
<svg xmlns="http://www.w3.org/2000/svg" version="1.1" viewBox="0.00 0.00 1024.00 1024.00">
<g stroke-width="2.00" fill="none" stroke-linecap="butt">
<path stroke="#90c0d4" vector-effect="non-scaling-stroke" d="
  M 392.93 221.80
  Q 377.80 237.38 366.49 256.22
  C 360.05 266.94 353.90 277.75 350.00 289.05"
/>
<path stroke="#8cb5c8" vector-effect="non-scaling-stroke" d="
  M 350.00 289.05
  Q 335.42 324.33 334.27 363.26"
/>
<path stroke="#89a7b7" vector-effect="non-scaling-stroke" d="
  M 334.27 363.26
  L 334.29 384.95"
/>
<path stroke="#899ba4" vector-effect="non-scaling-stroke" d="
  M 334.29 384.95
  Q 335.33 404.55 338.96 421.00
  Q 345.81 451.95 362.51 481.30
  Q 366.80 488.84 373.47 497.81
  Q 382.73 510.26 393.21 521.10
  C 418.56 547.31 452.17 565.85 487.43 575.91
  C 512.48 583.05 539.27 584.41 565.84 581.81
  Q 588.27 579.61 612.27 571.25
  Q 654.51 556.54 685.92 526.74
  Q 696.68 516.54 706.42 505.25
  A 0.67 0.66 -45.4 0 0 706.42 504.38
  Q 705.41 503.22 704.32 502.17
  Q 673.87 472.94 649.39 448.55
  Q 648.38 447.55 647.41 446.60
  A 0.92 0.91 41.6 0 0 646.06 446.68
  Q 637.38 457.53 627.52 467.23
  C 597.24 497.01 552.90 509.25 511.83 498.35
  Q 502.79 495.95 493.26 491.18
  Q 458.78 473.90 439.87 440.34
  Q 430.88 424.39 426.39 406.44
  Q 426.22 405.73 426.94 405.73
  L 738.31 405.77
  A 1.56 1.55 -89.2 0 0 739.86 404.25
  L 740.34 383.31"
/>
<path stroke="#89a7b7" vector-effect="non-scaling-stroke" d="
  M 740.34 383.31
  L 740.42 364.11"
/>
<path stroke="#8cb5c8" vector-effect="non-scaling-stroke" d="
  M 740.42 364.11
  L 739.39 335.83
  A 1.14 1.13 -0.8 0 0 738.26 334.74
  L 426.80 334.71
  A 0.56 0.56 0.0 0 1 426.25 334.03
  Q 429.05 320.68 434.26 309.57
  C 441.78 293.54 452.16 278.45 465.91 266.37"
/>
<path stroke="#90c0d4" vector-effect="non-scaling-stroke" d="
  M 465.91 266.37
  Q 489.24 245.94 519.52 239.36
  C 552.72 232.16 586.62 241.04 613.33 261.70
  Q 621.29 267.86 628.71 274.75"
/>
<path stroke="#8cb5c8" vector-effect="non-scaling-stroke" d="
  M 628.71 274.75
  C 635.38 281.22 640.38 288.55 646.09 296.05
  A 1.37 1.37 0.0 0 0 648.16 296.18
  L 664.25 279.80"
/>
<path stroke="#90c0d4" vector-effect="non-scaling-stroke" d="
  M 664.25 279.80
  Q 685.13 259.74 705.62 239.37
  C 708.25 236.76 706.43 235.61 704.33 233.42
  C 694.09 222.72 683.58 212.25 672.25 202.69"
/>
<path stroke="#97d1e5" vector-effect="non-scaling-stroke" d="
  M 672.25 202.69
  C 649.70 184.03 623.10 171.52 594.52 163.63
  Q 585.10 161.02 575.32 159.58
  Q 525.67 152.26 479.39 167.57
  Q 464.94 172.35 448.97 179.94
  Q 439.87 184.27 432.40 189.15
  Q 419.84 197.35 410.73 204.97
  Q 402.88 211.53 392.93 221.80"
/>
<path stroke="#2991bd" vector-effect="non-scaling-stroke" d="
  M 672.25 202.69
  Q 671.72 203.17 671.32 203.25
  Q 670.71 203.37 670.68 202.75
  Q 670.66 202.19 670.14 202.36
  Q 669.67 202.51 669.48 202.06
  Q 669.14 201.23 668.28 201.50
  A 1.85 1.69 44.5 0 1 667.18 201.46
  Q 666.93 201.37 667.04 201.14
  Q 667.34 200.51 666.65 200.68
  Q 666.30 200.77 665.91 200.79
  Q 665.55 200.80 665.24 200.60
  Q 664.74 200.27 664.08 200.49
  Q 663.68 200.63 664.09 200.69
  Q 664.38 200.73 664.39 201.07
  A 0.60 0.60 0.0 0 1 663.90 201.66
  Q 663.29 201.77 663.16 201.15
  Q 663.04 200.56 662.77 201.10
  Q 661.72 203.26 658.83 202.48
  Q 658.34 202.34 657.85 202.50
  Q 651.15 204.74 643.19 203.67
  C 642.25 203.55 641.55 203.92 640.65 203.97
  Q 639.76 204.03 638.82 203.87
  Q 636.06 203.42 633.26 203.47
  Q 630.95 203.52 627.86 202.75
  A 1.48 1.45 -49.2 0 0 626.92 202.83
  Q 625.71 203.35 624.41 203.06
  Q 621.75 202.47 619.03 202.65
  Q 618.22 202.70 617.47 202.97
  C 616.23 203.41 615.01 202.89 613.73 202.95
  Q 610.76 203.07 607.59 203.32
  Q 606.75 203.38 605.93 203.16
  Q 605.18 202.97 604.42 202.94
  Q 594.59 202.57 585.45 202.29
  Q 584.37 202.25 583.20 202.01
  Q 582.34 201.83 581.00 201.73
  Q 574.91 201.27 570.31 201.45
  Q 562.20 201.76 554.24 201.44
  Q 550.27 201.28 546.33 201.34
  Q 543.00 201.39 539.79 201.94
  Q 536.39 202.52 532.92 202.46
  Q 531.24 202.43 529.62 202.60
  Q 528.02 202.78 526.38 202.74
  Q 519.19 202.56 512.19 203.29
  Q 511.02 203.41 509.98 203.91
  Q 508.74 204.50 507.53 203.79
  Q 506.99 203.47 506.40 203.70
  Q 505.25 204.16 503.97 203.90
  Q 502.64 203.62 501.33 203.75
  Q 497.72 204.12 494.32 204.46
  C 492.13 204.68 490.12 204.57 487.96 205.14
  C 485.35 205.82 482.70 205.51 480.06 205.93
  C 477.79 206.29 475.13 205.73 472.95 206.44
  Q 471.78 206.83 470.55 206.88
  Q 467.38 207.03 466.90 207.11
  Q 462.72 207.81 458.67 208.12
  Q 453.31 208.53 450.36 208.99
  Q 445.87 209.68 440.91 210.48
  Q 440.39 210.57 439.10 210.51
  Q 438.22 210.46 437.32 210.61
  Q 433.21 211.30 429.30 211.99
  Q 428.91 212.05 428.70 212.39
  Q 428.55 212.61 428.28 212.65
  Q 425.41 213.05 423.01 213.71
  C 421.91 214.01 420.96 213.68 419.92 214.06
  Q 418.74 214.50 417.57 214.66
  C 416.06 214.86 414.69 214.95 413.25 215.57
  C 410.78 216.63 408.12 216.77 405.78 218.08
  Q 403.76 219.21 401.70 219.71
  Q 400.06 220.11 398.27 219.59
  Q 397.81 219.46 397.39 219.66
  L 392.93 221.80"
/>
<path stroke="#1e76a0" vector-effect="non-scaling-stroke" d="
  M 664.25 279.80
  Q 664.04 278.69 665.53 277.80
  Q 666.16 277.42 665.48 277.13
  Q 664.89 276.88 664.43 277.31
  A 0.33 0.31 59.2 0 0 664.35 277.65
  Q 664.44 277.90 664.15 277.95
  Q 663.89 278.00 663.65 277.87
  Q 662.34 277.18 661.91 275.65
  Q 661.75 275.11 661.20 275.15
  Q 656.23 275.46 651.23 273.97
  Q 650.87 273.87 650.60 273.63
  A 1.31 1.28 -22.5 0 0 649.80 273.31
  Q 648.50 273.26 647.13 273.26
  Q 645.80 273.26 644.46 272.96
  Q 642.81 272.59 641.23 273.50
  Q 640.85 273.72 640.43 273.61
  Q 639.50 273.36 638.49 273.41
  Q 637.60 273.46 636.49 273.43
  Q 635.19 273.39 634.03 274.16
  Q 633.52 274.50 632.92 274.37
  Q 631.91 274.15 631.09 273.47
  A 1.56 1.40 40.0 0 0 628.99 273.54
  Q 628.74 273.84 628.71 274.75"
/>
<path stroke="#1e76a0" vector-effect="non-scaling-stroke" d="
  M 465.91 266.37
  Q 463.09 264.94 460.38 265.68
  Q 457.81 266.39 456.20 266.40
  A 3.42 3.34 -53.8 0 0 455.24 266.56
  C 453.82 267.02 452.55 266.81 451.11 266.98
  Q 448.05 267.36 445.74 268.01
  Q 442.04 269.06 438.31 269.80
  Q 434.47 270.57 430.81 271.57
  Q 427.40 272.51 424.14 272.64
  Q 422.80 272.70 421.48 273.08
  Q 420.17 273.46 418.64 273.65
  Q 402.60 275.69 382.75 279.60
  Q 379.51 280.24 376.21 280.35
  C 374.81 280.40 373.84 280.91 372.56 281.38
  Q 371.27 281.86 369.93 282.04
  Q 368.93 282.17 368.07 282.67
  C 366.12 283.81 363.78 282.81 362.02 284.09
  C 360.79 284.98 359.82 285.75 358.33 286.25
  Q 357.11 286.66 356.14 287.72
  Q 355.80 288.10 355.28 288.10
  L 350.99 288.10
  Q 350.71 288.10 350.82 288.36
  Q 350.91 288.59 350.77 288.76
  Q 350.27 289.35 350.00 289.05"
/>
<path stroke="#175d83" vector-effect="non-scaling-stroke" d="
  M 740.42 364.11
  Q 702.54 363.78 664.75 363.75
  Q 598.90 363.69 529.50 363.81
  Q 519.19 363.83 509.50 363.75
  C 479.95 363.51 451.24 363.87 422.01 363.98
  Q 413.18 364.01 402.00 363.74
  Q 382.93 363.30 372.75 363.42
  Q 346.66 363.74 334.27 363.26"
/>
<path stroke="#14435f" vector-effect="non-scaling-stroke" d="
  M 740.34 383.31
  Q 734.77 383.78 729.23 383.62
  Q 718.36 383.30 718.26 383.30
  C 694.37 383.27 670.85 382.84 647.26 383.14
  Q 621.56 383.48 591.52 383.18
  C 587.12 383.13 582.32 383.56 577.83 383.53
  C 496.73 383.01 416.85 383.69 336.25 383.43
  Q 334.58 383.42 334.29 384.95"
/>
<path stroke="#899ba4" vector-effect="non-scaling-stroke" d="
  M 657.00 735.48
  Q 642.63 738.24 632.37 727.41
  Q 625.98 720.67 625.06 711.61
  C 623.82 699.24 629.19 687.14 640.92 681.90
  C 653.87 676.11 665.93 681.11 674.73 691.28
  A 0.86 0.86 0.0 0 0 675.96 691.35
  L 689.59 678.67
  Q 690.17 678.14 689.67 677.52
  Q 683.59 669.87 674.26 664.20
  Q 666.68 659.58 656.23 658.56
  Q 643.16 657.28 630.98 663.01
  C 615.83 670.13 605.18 686.17 603.85 702.61
  Q 603.17 710.90 604.26 717.48
  C 606.20 729.15 613.45 740.14 622.81 747.52
  C 643.45 763.79 675.76 759.48 690.34 737.37
  A 1.50 1.49 -52.9 0 0 690.07 735.41
  L 675.80 723.23
  A 0.70 0.70 0.0 0 0 674.80 723.32
  C 670.14 729.19 664.44 734.06 657.00 735.48"
/>
<path stroke="#899ba4" vector-effect="non-scaling-stroke" d="
  M 707.68 747.94
  C 719.90 756.95 737.17 759.87 751.79 755.83
  C 764.32 752.36 773.33 743.19 774.94 730.05
  Q 775.94 721.90 772.55 715.00
  C 766.60 702.90 750.16 700.44 738.29 697.67
  Q 734.05 696.67 730.80 694.92
  C 725.22 691.89 724.09 685.10 729.77 681.31
  C 738.82 675.26 750.58 678.52 757.49 686.63
  A 0.73 0.73 0.0 0 0 758.56 686.67
  L 771.23 674.08
  Q 772.03 673.29 771.48 672.30
  Q 770.44 670.41 768.92 669.07
  Q 753.87 655.85 732.85 659.02
  C 719.06 661.10 708.43 670.46 706.00 684.16
  C 703.70 697.15 708.24 707.92 720.37 713.88
  C 726.11 716.70 733.96 717.94 740.85 719.27
  C 744.38 719.96 748.01 721.17 751.01 722.98
  C 755.14 725.45 755.40 730.96 751.53 733.80
  C 746.24 737.67 738.32 738.35 732.34 736.84
  Q 723.74 734.67 716.88 728.85
  A 1.02 1.02 0.0 0 0 715.42 728.99
  L 704.58 742.47
  Q 703.87 743.35 704.44 744.33
  Q 705.69 746.48 707.68 747.94"
/>
<path stroke="#899ba4" vector-effect="non-scaling-stroke" d="
  M 311.99 718.27
  L 342.99 718.31
  A 1.46 1.46 0.0 0 0 344.38 717.29
  Q 344.64 716.44 344.65 715.59
  Q 344.80 708.02 344.73 699.21
  A 0.49 0.49 0.0 0 0 344.24 698.72
  L 311.74 698.73
  A 0.49 0.49 0.0 0 1 311.25 698.24
  L 311.26 680.73
  Q 311.26 680.12 311.86 680.12
  L 352.58 680.08
  A 3.40 3.39 -0.0 0 0 355.97 676.70
  L 356.01 663.28
  A 2.98 2.98 0.0 0 0 353.03 660.30
  L 295.95 660.43
  Q 291.07 660.44 291.02 665.31
  Q 290.63 703.67 290.79 752.06
  C 290.80 756.57 294.16 756.60 297.73 756.59
  Q 326.62 756.48 353.90 756.76
  A 3.34 3.34 0.0 0 0 357.27 753.42
  L 357.30 739.81
  Q 357.31 736.82 354.31 736.81
  L 311.51 736.74
  A 0.26 0.26 0.0 0 1 311.25 736.48
  L 311.25 719.01
  Q 311.25 718.27 311.99 718.27"
/>
<path stroke="#899ba4" vector-effect="non-scaling-stroke" d="
  M 398.88 681.06
  L 399.05 753.02
  A 3.49 3.49 0.0 0 0 402.53 756.50
  L 415.80 756.52
  A 3.20 3.20 0.0 0 0 419.00 753.32
  L 419.00 680.95
  A 0.79 0.79 0.0 0 1 419.80 680.16
  L 445.63 680.32
  A 2.70 2.70 0.0 0 0 448.35 677.62
  L 448.40 663.75
  Q 448.41 660.34 444.99 660.34
  L 373.87 660.44
  Q 370.43 660.44 370.47 663.88
  L 370.62 677.46
  A 2.85 2.84 89.6 0 0 373.46 680.27
  L 398.06 680.24
  Q 398.88 680.24 398.88 681.06"
/>
<path stroke="#899ba4" vector-effect="non-scaling-stroke" d="
  M 484.47 717.54
  L 521.03 717.52
  A 0.52 0.51 -0.0 0 1 521.55 718.03
  L 521.30 752.72
  A 3.72 3.72 0.0 0 0 524.97 756.47
  L 537.84 756.67
  A 3.59 3.59 0.0 0 0 541.48 753.12
  Q 541.97 708.72 541.49 663.20
  A 3.00 2.99 87.7 0 0 538.29 660.24
  Q 531.48 660.70 524.91 660.48
  Q 521.42 660.36 521.43 663.84
  L 521.53 696.23
  A 0.78 0.77 89.6 0 1 520.77 697.01
  L 484.79 697.17
  A 0.89 0.88 -0.3 0 1 483.89 696.29
  L 483.76 663.02
  A 2.50 2.50 0.0 0 0 481.27 660.53
  L 466.73 660.47
  A 3.30 3.30 0.0 0 0 463.42 663.77
  L 463.54 752.62
  A 4.05 4.04 -0.2 0 0 467.62 756.66
  L 481.25 756.58
  A 2.57 2.57 0.0 0 0 483.80 754.00
  L 483.73 718.28
  Q 483.72 717.54 484.47 717.54"
/>
<path stroke="#899ba4" vector-effect="non-scaling-stroke" d="
  M 584.02 663.95
  A 3.40 3.40 0.0 0 0 580.62 660.55
  L 567.14 660.55
  A 3.40 3.40 0.0 0 0 563.74 663.95
  L 563.74 753.09
  A 3.40 3.40 0.0 0 0 567.14 756.49
  L 580.62 756.49
  A 3.40 3.40 0.0 0 0 584.02 753.09
  L 584.02 663.95"
/>
<path stroke="#899ba4" vector-effect="non-scaling-stroke" d="
  M 752.46 832.71
  A 5.21 5.19 -83.5 0 1 749.13 835.37
  C 742.86 837.00 736.58 836.09 732.78 830.30
  C 728.27 823.43 730.77 815.76 737.71 812.17
  C 743.21 809.33 749.39 810.67 753.88 814.62
  Q 754.41 815.08 754.97 814.66
  L 761.12 809.98
  A 0.76 0.75 48.9 0 0 761.19 808.84
  C 753.36 801.13 741.24 798.74 731.78 804.57
  Q 720.28 811.66 721.31 825.15
  C 721.90 832.96 726.82 839.96 733.92 843.27
  Q 746.02 848.90 758.57 841.03
  Q 760.81 839.62 761.99 837.89
  Q 762.28 837.47 762.28 836.97
  L 762.27 820.50
  Q 762.27 819.94 761.71 819.88
  Q 759.03 819.62 757.44 819.78
  Q 750.34 820.45 743.95 820.65
  Q 742.87 820.68 742.87 821.75
  L 742.86 827.92
  A 1.23 1.23 0.0 0 0 744.00 829.15
  Q 748.32 829.43 752.23 828.93
  Q 754.54 828.64 753.48 830.72
  Q 752.82 832.00 752.46 832.71"
/>
<path stroke="#899ba4" vector-effect="non-scaling-stroke" d="
  M 374.01 830.26
  L 363.10 803.67
  Q 362.46 802.12 360.79 802.12
  L 355.29 802.12
  Q 351.94 802.12 353.29 805.19
  L 370.07 843.37
  A 3.05 3.03 -11.9 0 0 372.87 845.18
  L 377.37 845.14
  Q 377.92 845.13 378.35 844.80
  Q 379.89 843.61 380.61 841.75
  Q 387.78 823.09 396.34 804.43
  A 1.34 1.34 0.0 0 0 395.25 802.54
  Q 391.22 802.14 387.19 802.55
  A 2.06 2.06 0.0 0 0 385.46 803.86
  L 375.33 830.25
  Q 374.69 831.92 374.01 830.26"
/>
<path stroke="#899ba4" vector-effect="non-scaling-stroke" d="
  M 558.58 837.99
  A 1.13 1.12 10.7 0 1 559.63 837.28
  L 575.58 837.24
  A 1.11 1.10 75.0 0 1 576.54 837.80
  L 579.87 843.68
  Q 580.48 844.76 581.73 844.81
  Q 585.68 844.94 588.71 844.66
  Q 591.06 844.45 590.07 842.30
  Q 583.11 827.12 576.53 812.59
  Q 574.66 808.44 572.81 803.47
  Q 572.28 802.05 570.77 802.05
  L 564.52 802.04
  A 1.21 1.20 -78.6 0 0 563.41 802.78
  C 560.71 809.19 558.23 815.84 555.26 822.25
  Q 550.83 831.78 546.73 841.76
  Q 545.63 844.43 548.50 844.70
  Q 551.35 844.97 554.70 844.76
  Q 555.92 844.68 556.36 843.55
  L 558.58 837.99"
/>
<path stroke="#899ba4" vector-effect="non-scaling-stroke" d="
  M 317.34 819.05
  L 317.27 812.40
  Q 317.26 811.57 318.10 811.57
  L 338.02 811.59
  Q 340.22 811.59 340.37 809.40
  Q 340.53 807.08 340.36 805.09
  Q 340.16 802.54 337.60 802.53
  L 308.93 802.41
  A 1.66 1.66 0.0 0 0 307.27 804.07
  L 307.29 842.22
  A 2.68 2.68 0.0 0 0 309.97 844.90
  L 338.51 844.93
  Q 341.22 844.93 341.26 842.23
  L 341.33 837.60
  Q 341.36 835.84 339.60 835.85
  L 318.04 836.05
  Q 317.27 836.06 317.27 835.29
  L 317.27 829.11
  Q 317.27 828.50 317.89 828.50
  L 333.00 828.50
  A 1.01 1.00 -0.3 0 0 334.00 827.50
  L 333.99 820.50
  Q 333.99 819.75 333.24 819.75
  L 318.05 819.74
  Q 317.35 819.74 317.34 819.05"
/>
<path stroke="#899ba4" vector-effect="non-scaling-stroke" d="
  M 415.20 837.36
  L 431.77 837.23
  A 1.59 1.59 0.0 0 1 433.28 838.29
  C 434.03 840.37 435.07 844.18 437.63 844.51
  Q 440.90 844.94 444.85 844.39
  A 1.35 1.35 0.0 0 0 445.90 842.50
  Q 439.56 828.48 433.22 815.53
  C 431.21 811.42 429.77 807.26 428.25 803.02
  A 1.15 1.14 80.3 0 0 427.17 802.25
  L 419.72 802.24
  Q 419.10 802.24 418.87 802.82
  Q 414.34 814.41 408.28 827.47
  Q 406.42 831.49 402.14 842.64
  A 1.66 1.65 -73.9 0 0 403.36 844.86
  Q 406.07 845.39 410.04 845.10
  Q 411.19 845.02 411.65 843.95
  L 414.18 838.03
  A 1.11 1.11 0.0 0 1 415.20 837.36"
/>
<path stroke="#899ba4" vector-effect="non-scaling-stroke" d="
  M 468.62 835.42
  A 0.90 0.89 7.7 0 1 467.96 834.56
  L 467.91 804.48
  Q 467.91 802.31 465.73 802.32
  L 459.93 802.33
  Q 457.94 802.33 457.95 804.32
  L 458.16 842.71
  A 2.29 2.29 0.0 0 0 460.46 844.98
  L 485.02 844.95
  Q 488.49 844.94 488.65 841.48
  L 488.78 838.50
  Q 488.92 835.43 485.85 835.48
  Q 477.86 835.61 470.31 835.64
  Q 469.44 835.64 468.62 835.42"
/>
<path stroke="#899ba4" vector-effect="non-scaling-stroke" d="
  M 525.04 831.67
  C 523.05 835.81 517.77 836.92 513.88 835.09
  C 509.97 833.24 507.92 829.28 507.95 824.95
  Q 508.02 814.22 507.83 804.23
  Q 507.80 802.33 505.87 802.30
  Q 505.75 802.30 500.01 802.23
  Q 497.97 802.20 497.99 804.24
  Q 498.06 812.81 497.94 822.38
  C 497.80 833.37 502.80 843.66 514.79 845.21
  C 526.12 846.66 535.76 839.38 535.74 827.53
  Q 535.72 817.44 535.76 804.23
  Q 535.76 802.21 533.74 802.22
  L 528.79 802.25
  Q 526.17 802.26 526.21 804.88
  Q 526.35 816.08 526.20 826.85
  Q 526.16 829.35 525.04 831.67"
/>
<path stroke="#899ba4" vector-effect="non-scaling-stroke" d="
  M 604.75 812.15
  Q 604.81 825.62 604.79 841.79
  C 604.78 845.59 609.38 845.16 611.96 844.93
  Q 615.03 844.66 614.94 841.84
  Q 614.46 826.84 614.49 812.51
  A 0.51 0.51 0.0 0 1 615.00 812.00
  L 625.25 812.04
  Q 628.04 812.04 628.03 809.25
  L 628.00 804.85
  Q 627.99 802.45 625.60 802.44
  L 594.48 802.26
  Q 591.95 802.24 591.92 804.77
  L 591.86 809.07
  Q 591.83 811.91 594.67 812.02
  Q 599.64 812.21 604.12 811.60
  Q 604.75 811.52 604.75 812.15"
/>
<path stroke="#899ba4" vector-effect="non-scaling-stroke" d="
  M 651.0978 805.1812
  A 3.06 3.06 0.0 0 0 648.0325 802.1265
  L 644.0325 802.1335
  A 3.06 3.06 0.0 0 0 640.9778 805.1989
  L 641.0422 842.0988
  A 3.06 3.06 0.0 0 0 644.1075 845.1535
  L 648.1075 845.1465
  A 3.06 3.06 0.0 0 0 651.1622 842.0811
  L 651.0978 805.1812"
/>
<path stroke="#899ba4" vector-effect="non-scaling-stroke" d="
  M 677.98 821.38
  Q 677.97 819.27 679.30 820.91
  Q 688.71 832.49 698.24 844.28
  C 699.55 845.89 702.28 845.62 704.17 845.45
  C 707.08 845.17 707.56 843.17 707.53 840.72
  Q 707.34 822.17 707.34 804.40
  Q 707.34 802.38 705.31 802.37
  L 699.46 802.34
  Q 697.50 802.33 697.50 804.29
  L 697.50 825.74
  Q 697.50 827.77 696.13 826.27
  Q 685.83 815.01 676.18 802.80
  A 1.51 1.50 -18.7 0 0 674.99 802.22
  L 669.46 802.22
  A 1.57 1.57 0.0 0 0 667.89 803.79
  L 667.93 842.43
  A 2.72 2.72 0.0 0 0 670.39 845.14
  C 672.89 845.38 678.03 845.93 678.03 841.89
  Q 678.03 830.51 677.98 821.38"
/>
<path stroke="#899ba4" vector-effect="non-scaling-stroke" d="
  M 562.99 827.76
  A 0.37 0.37 0.0 0 0 563.33 828.27
  L 573.49 828.34
  A 0.37 0.37 0.0 0 0 573.82 827.79
  L 568.04 817.13
  A 0.37 0.37 0.0 0 0 567.37 817.17
  L 562.99 827.76"
/>
<path stroke="#899ba4" vector-effect="non-scaling-stroke" d="
  M 422.68 816.87
  C 421.65 820.34 420.04 824.22 418.20 827.61
  A 0.32 0.32 0.0 0 0 418.48 828.08
  L 428.72 828.22
  A 0.39 0.39 0.0 0 0 429.08 827.65
  L 423.70 816.78
  Q 423.07 815.52 422.68 816.87"
/>
</g>
<path fill="#fefffc" d="
  M 0.00 0.00
  L 1024.00 0.00
  L 1024.00 1024.00
  L 0.00 1024.00
  L 0.00 0.00
  Z
  M 392.93 221.80
  Q 377.80 237.38 366.49 256.22
  C 360.05 266.94 353.90 277.75 350.00 289.05
  Q 335.42 324.33 334.27 363.26
  L 334.29 384.95
  Q 335.33 404.55 338.96 421.00
  Q 345.81 451.95 362.51 481.30
  Q 366.80 488.84 373.47 497.81
  Q 382.73 510.26 393.21 521.10
  C 418.56 547.31 452.17 565.85 487.43 575.91
  C 512.48 583.05 539.27 584.41 565.84 581.81
  Q 588.27 579.61 612.27 571.25
  Q 654.51 556.54 685.92 526.74
  Q 696.68 516.54 706.42 505.25
  A 0.67 0.66 -45.4 0 0 706.42 504.38
  Q 705.41 503.22 704.32 502.17
  Q 673.87 472.94 649.39 448.55
  Q 648.38 447.55 647.41 446.60
  A 0.92 0.91 41.6 0 0 646.06 446.68
  Q 637.38 457.53 627.52 467.23
  C 597.24 497.01 552.90 509.25 511.83 498.35
  Q 502.79 495.95 493.26 491.18
  Q 458.78 473.90 439.87 440.34
  Q 430.88 424.39 426.39 406.44
  Q 426.22 405.73 426.94 405.73
  L 738.31 405.77
  A 1.56 1.55 -89.2 0 0 739.86 404.25
  L 740.34 383.31
  L 740.42 364.11
  L 739.39 335.83
  A 1.14 1.13 -0.8 0 0 738.26 334.74
  L 426.80 334.71
  A 0.56 0.56 0.0 0 1 426.25 334.03
  Q 429.05 320.68 434.26 309.57
  C 441.78 293.54 452.16 278.45 465.91 266.37
  Q 489.24 245.94 519.52 239.36
  C 552.72 232.16 586.62 241.04 613.33 261.70
  Q 621.29 267.86 628.71 274.75
  C 635.38 281.22 640.38 288.55 646.09 296.05
  A 1.37 1.37 0.0 0 0 648.16 296.18
  L 664.25 279.80
  Q 685.13 259.74 705.62 239.37
  C 708.25 236.76 706.43 235.61 704.33 233.42
  C 694.09 222.72 683.58 212.25 672.25 202.69
  C 649.70 184.03 623.10 171.52 594.52 163.63
  Q 585.10 161.02 575.32 159.58
  Q 525.67 152.26 479.39 167.57
  Q 464.94 172.35 448.97 179.94
  Q 439.87 184.27 432.40 189.15
  Q 419.84 197.35 410.73 204.97
  Q 402.88 211.53 392.93 221.80
  Z
  M 657.00 735.48
  Q 642.63 738.24 632.37 727.41
  Q 625.98 720.67 625.06 711.61
  C 623.82 699.24 629.19 687.14 640.92 681.90
  C 653.87 676.11 665.93 681.11 674.73 691.28
  A 0.86 0.86 0.0 0 0 675.96 691.35
  L 689.59 678.67
  Q 690.17 678.14 689.67 677.52
  Q 683.59 669.87 674.26 664.20
  Q 666.68 659.58 656.23 658.56
  Q 643.16 657.28 630.98 663.01
  C 615.83 670.13 605.18 686.17 603.85 702.61
  Q 603.17 710.90 604.26 717.48
  C 606.20 729.15 613.45 740.14 622.81 747.52
  C 643.45 763.79 675.76 759.48 690.34 737.37
  A 1.50 1.49 -52.9 0 0 690.07 735.41
  L 675.80 723.23
  A 0.70 0.70 0.0 0 0 674.80 723.32
  C 670.14 729.19 664.44 734.06 657.00 735.48
  Z
  M 707.68 747.94
  C 719.90 756.95 737.17 759.87 751.79 755.83
  C 764.32 752.36 773.33 743.19 774.94 730.05
  Q 775.94 721.90 772.55 715.00
  C 766.60 702.90 750.16 700.44 738.29 697.67
  Q 734.05 696.67 730.80 694.92
  C 725.22 691.89 724.09 685.10 729.77 681.31
  C 738.82 675.26 750.58 678.52 757.49 686.63
  A 0.73 0.73 0.0 0 0 758.56 686.67
  L 771.23 674.08
  Q 772.03 673.29 771.48 672.30
  Q 770.44 670.41 768.92 669.07
  Q 753.87 655.85 732.85 659.02
  C 719.06 661.10 708.43 670.46 706.00 684.16
  C 703.70 697.15 708.24 707.92 720.37 713.88
  C 726.11 716.70 733.96 717.94 740.85 719.27
  C 744.38 719.96 748.01 721.17 751.01 722.98
  C 755.14 725.45 755.40 730.96 751.53 733.80
  C 746.24 737.67 738.32 738.35 732.34 736.84
  Q 723.74 734.67 716.88 728.85
  A 1.02 1.02 0.0 0 0 715.42 728.99
  L 704.58 742.47
  Q 703.87 743.35 704.44 744.33
  Q 705.69 746.48 707.68 747.94
  Z
  M 311.99 718.27
  L 342.99 718.31
  A 1.46 1.46 0.0 0 0 344.38 717.29
  Q 344.64 716.44 344.65 715.59
  Q 344.80 708.02 344.73 699.21
  A 0.49 0.49 0.0 0 0 344.24 698.72
  L 311.74 698.73
  A 0.49 0.49 0.0 0 1 311.25 698.24
  L 311.26 680.73
  Q 311.26 680.12 311.86 680.12
  L 352.58 680.08
  A 3.40 3.39 -0.0 0 0 355.97 676.70
  L 356.01 663.28
  A 2.98 2.98 0.0 0 0 353.03 660.30
  L 295.95 660.43
  Q 291.07 660.44 291.02 665.31
  Q 290.63 703.67 290.79 752.06
  C 290.80 756.57 294.16 756.60 297.73 756.59
  Q 326.62 756.48 353.90 756.76
  A 3.34 3.34 0.0 0 0 357.27 753.42
  L 357.30 739.81
  Q 357.31 736.82 354.31 736.81
  L 311.51 736.74
  A 0.26 0.26 0.0 0 1 311.25 736.48
  L 311.25 719.01
  Q 311.25 718.27 311.99 718.27
  Z
  M 398.88 681.06
  L 399.05 753.02
  A 3.49 3.49 0.0 0 0 402.53 756.50
  L 415.80 756.52
  A 3.20 3.20 0.0 0 0 419.00 753.32
  L 419.00 680.95
  A 0.79 0.79 0.0 0 1 419.80 680.16
  L 445.63 680.32
  A 2.70 2.70 0.0 0 0 448.35 677.62
  L 448.40 663.75
  Q 448.41 660.34 444.99 660.34
  L 373.87 660.44
  Q 370.43 660.44 370.47 663.88
  L 370.62 677.46
  A 2.85 2.84 89.6 0 0 373.46 680.27
  L 398.06 680.24
  Q 398.88 680.24 398.88 681.06
  Z
  M 484.47 717.54
  L 521.03 717.52
  A 0.52 0.51 -0.0 0 1 521.55 718.03
  L 521.30 752.72
  A 3.72 3.72 0.0 0 0 524.97 756.47
  L 537.84 756.67
  A 3.59 3.59 0.0 0 0 541.48 753.12
  Q 541.97 708.72 541.49 663.20
  A 3.00 2.99 87.7 0 0 538.29 660.24
  Q 531.48 660.70 524.91 660.48
  Q 521.42 660.36 521.43 663.84
  L 521.53 696.23
  A 0.78 0.77 89.6 0 1 520.77 697.01
  L 484.79 697.17
  A 0.89 0.88 -0.3 0 1 483.89 696.29
  L 483.76 663.02
  A 2.50 2.50 0.0 0 0 481.27 660.53
  L 466.73 660.47
  A 3.30 3.30 0.0 0 0 463.42 663.77
  L 463.54 752.62
  A 4.05 4.04 -0.2 0 0 467.62 756.66
  L 481.25 756.58
  A 2.57 2.57 0.0 0 0 483.80 754.00
  L 483.73 718.28
  Q 483.72 717.54 484.47 717.54
  Z
  M 584.02 663.95
  A 3.40 3.40 0.0 0 0 580.62 660.55
  L 567.14 660.55
  A 3.40 3.40 0.0 0 0 563.74 663.95
  L 563.74 753.09
  A 3.40 3.40 0.0 0 0 567.14 756.49
  L 580.62 756.49
  A 3.40 3.40 0.0 0 0 584.02 753.09
  L 584.02 663.95
  Z
  M 752.46 832.71
  A 5.21 5.19 -83.5 0 1 749.13 835.37
  C 742.86 837.00 736.58 836.09 732.78 830.30
  C 728.27 823.43 730.77 815.76 737.71 812.17
  C 743.21 809.33 749.39 810.67 753.88 814.62
  Q 754.41 815.08 754.97 814.66
  L 761.12 809.98
  A 0.76 0.75 48.9 0 0 761.19 808.84
  C 753.36 801.13 741.24 798.74 731.78 804.57
  Q 720.28 811.66 721.31 825.15
  C 721.90 832.96 726.82 839.96 733.92 843.27
  Q 746.02 848.90 758.57 841.03
  Q 760.81 839.62 761.99 837.89
  Q 762.28 837.47 762.28 836.97
  L 762.27 820.50
  Q 762.27 819.94 761.71 819.88
  Q 759.03 819.62 757.44 819.78
  Q 750.34 820.45 743.95 820.65
  Q 742.87 820.68 742.87 821.75
  L 742.86 827.92
  A 1.23 1.23 0.0 0 0 744.00 829.15
  Q 748.32 829.43 752.23 828.93
  Q 754.54 828.64 753.48 830.72
  Q 752.82 832.00 752.46 832.71
  Z
  M 374.01 830.26
  L 363.10 803.67
  Q 362.46 802.12 360.79 802.12
  L 355.29 802.12
  Q 351.94 802.12 353.29 805.19
  L 370.07 843.37
  A 3.05 3.03 -11.9 0 0 372.87 845.18
  L 377.37 845.14
  Q 377.92 845.13 378.35 844.80
  Q 379.89 843.61 380.61 841.75
  Q 387.78 823.09 396.34 804.43
  A 1.34 1.34 0.0 0 0 395.25 802.54
  Q 391.22 802.14 387.19 802.55
  A 2.06 2.06 0.0 0 0 385.46 803.86
  L 375.33 830.25
  Q 374.69 831.92 374.01 830.26
  Z
  M 558.58 837.99
  A 1.13 1.12 10.7 0 1 559.63 837.28
  L 575.58 837.24
  A 1.11 1.10 75.0 0 1 576.54 837.80
  L 579.87 843.68
  Q 580.48 844.76 581.73 844.81
  Q 585.68 844.94 588.71 844.66
  Q 591.06 844.45 590.07 842.30
  Q 583.11 827.12 576.53 812.59
  Q 574.66 808.44 572.81 803.47
  Q 572.28 802.05 570.77 802.05
  L 564.52 802.04
  A 1.21 1.20 -78.6 0 0 563.41 802.78
  C 560.71 809.19 558.23 815.84 555.26 822.25
  Q 550.83 831.78 546.73 841.76
  Q 545.63 844.43 548.50 844.70
  Q 551.35 844.97 554.70 844.76
  Q 555.92 844.68 556.36 843.55
  L 558.58 837.99
  Z
  M 317.34 819.05
  L 317.27 812.40
  Q 317.26 811.57 318.10 811.57
  L 338.02 811.59
  Q 340.22 811.59 340.37 809.40
  Q 340.53 807.08 340.36 805.09
  Q 340.16 802.54 337.60 802.53
  L 308.93 802.41
  A 1.66 1.66 0.0 0 0 307.27 804.07
  L 307.29 842.22
  A 2.68 2.68 0.0 0 0 309.97 844.90
  L 338.51 844.93
  Q 341.22 844.93 341.26 842.23
  L 341.33 837.60
  Q 341.36 835.84 339.60 835.85
  L 318.04 836.05
  Q 317.27 836.06 317.27 835.29
  L 317.27 829.11
  Q 317.27 828.50 317.89 828.50
  L 333.00 828.50
  A 1.01 1.00 -0.3 0 0 334.00 827.50
  L 333.99 820.50
  Q 333.99 819.75 333.24 819.75
  L 318.05 819.74
  Q 317.35 819.74 317.34 819.05
  Z
  M 415.20 837.36
  L 431.77 837.23
  A 1.59 1.59 0.0 0 1 433.28 838.29
  C 434.03 840.37 435.07 844.18 437.63 844.51
  Q 440.90 844.94 444.85 844.39
  A 1.35 1.35 0.0 0 0 445.90 842.50
  Q 439.56 828.48 433.22 815.53
  C 431.21 811.42 429.77 807.26 428.25 803.02
  A 1.15 1.14 80.3 0 0 427.17 802.25
  L 419.72 802.24
  Q 419.10 802.24 418.87 802.82
  Q 414.34 814.41 408.28 827.47
  Q 406.42 831.49 402.14 842.64
  A 1.66 1.65 -73.9 0 0 403.36 844.86
  Q 406.07 845.39 410.04 845.10
  Q 411.19 845.02 411.65 843.95
  L 414.18 838.03
  A 1.11 1.11 0.0 0 1 415.20 837.36
  Z
  M 468.62 835.42
  A 0.90 0.89 7.7 0 1 467.96 834.56
  L 467.91 804.48
  Q 467.91 802.31 465.73 802.32
  L 459.93 802.33
  Q 457.94 802.33 457.95 804.32
  L 458.16 842.71
  A 2.29 2.29 0.0 0 0 460.46 844.98
  L 485.02 844.95
  Q 488.49 844.94 488.65 841.48
  L 488.78 838.50
  Q 488.92 835.43 485.85 835.48
  Q 477.86 835.61 470.31 835.64
  Q 469.44 835.64 468.62 835.42
  Z
  M 525.04 831.67
  C 523.05 835.81 517.77 836.92 513.88 835.09
  C 509.97 833.24 507.92 829.28 507.95 824.95
  Q 508.02 814.22 507.83 804.23
  Q 507.80 802.33 505.87 802.30
  Q 505.75 802.30 500.01 802.23
  Q 497.97 802.20 497.99 804.24
  Q 498.06 812.81 497.94 822.38
  C 497.80 833.37 502.80 843.66 514.79 845.21
  C 526.12 846.66 535.76 839.38 535.74 827.53
  Q 535.72 817.44 535.76 804.23
  Q 535.76 802.21 533.74 802.22
  L 528.79 802.25
  Q 526.17 802.26 526.21 804.88
  Q 526.35 816.08 526.20 826.85
  Q 526.16 829.35 525.04 831.67
  Z
  M 604.75 812.15
  Q 604.81 825.62 604.79 841.79
  C 604.78 845.59 609.38 845.16 611.96 844.93
  Q 615.03 844.66 614.94 841.84
  Q 614.46 826.84 614.49 812.51
  A 0.51 0.51 0.0 0 1 615.00 812.00
  L 625.25 812.04
  Q 628.04 812.04 628.03 809.25
  L 628.00 804.85
  Q 627.99 802.45 625.60 802.44
  L 594.48 802.26
  Q 591.95 802.24 591.92 804.77
  L 591.86 809.07
  Q 591.83 811.91 594.67 812.02
  Q 599.64 812.21 604.12 811.60
  Q 604.75 811.52 604.75 812.15
  Z
  M 651.0978 805.1812
  A 3.06 3.06 0.0 0 0 648.0325 802.1265
  L 644.0325 802.1335
  A 3.06 3.06 0.0 0 0 640.9778 805.1989
  L 641.0422 842.0988
  A 3.06 3.06 0.0 0 0 644.1075 845.1535
  L 648.1075 845.1465
  A 3.06 3.06 0.0 0 0 651.1622 842.0811
  L 651.0978 805.1812
  Z
  M 677.98 821.38
  Q 677.97 819.27 679.30 820.91
  Q 688.71 832.49 698.24 844.28
  C 699.55 845.89 702.28 845.62 704.17 845.45
  C 707.08 845.17 707.56 843.17 707.53 840.72
  Q 707.34 822.17 707.34 804.40
  Q 707.34 802.38 705.31 802.37
  L 699.46 802.34
  Q 697.50 802.33 697.50 804.29
  L 697.50 825.74
  Q 697.50 827.77 696.13 826.27
  Q 685.83 815.01 676.18 802.80
  A 1.51 1.50 -18.7 0 0 674.99 802.22
  L 669.46 802.22
  A 1.57 1.57 0.0 0 0 667.89 803.79
  L 667.93 842.43
  A 2.72 2.72 0.0 0 0 670.39 845.14
  C 672.89 845.38 678.03 845.93 678.03 841.89
  Q 678.03 830.51 677.98 821.38
  Z"
/>
<path fill="#2fa2cd" d="
  M 672.25 202.69
  Q 671.72 203.17 671.32 203.25
  Q 670.71 203.37 670.68 202.75
  Q 670.66 202.19 670.14 202.36
  Q 669.67 202.51 669.48 202.06
  Q 669.14 201.23 668.28 201.50
  A 1.85 1.69 44.5 0 1 667.18 201.46
  Q 666.93 201.37 667.04 201.14
  Q 667.34 200.51 666.65 200.68
  Q 666.30 200.77 665.91 200.79
  Q 665.55 200.80 665.24 200.60
  Q 664.74 200.27 664.08 200.49
  Q 663.68 200.63 664.09 200.69
  Q 664.38 200.73 664.39 201.07
  A 0.60 0.60 0.0 0 1 663.90 201.66
  Q 663.29 201.77 663.16 201.15
  Q 663.04 200.56 662.77 201.10
  Q 661.72 203.26 658.83 202.48
  Q 658.34 202.34 657.85 202.50
  Q 651.15 204.74 643.19 203.67
  C 642.25 203.55 641.55 203.92 640.65 203.97
  Q 639.76 204.03 638.82 203.87
  Q 636.06 203.42 633.26 203.47
  Q 630.95 203.52 627.86 202.75
  A 1.48 1.45 -49.2 0 0 626.92 202.83
  Q 625.71 203.35 624.41 203.06
  Q 621.75 202.47 619.03 202.65
  Q 618.22 202.70 617.47 202.97
  C 616.23 203.41 615.01 202.89 613.73 202.95
  Q 610.76 203.07 607.59 203.32
  Q 606.75 203.38 605.93 203.16
  Q 605.18 202.97 604.42 202.94
  Q 594.59 202.57 585.45 202.29
  Q 584.37 202.25 583.20 202.01
  Q 582.34 201.83 581.00 201.73
  Q 574.91 201.27 570.31 201.45
  Q 562.20 201.76 554.24 201.44
  Q 550.27 201.28 546.33 201.34
  Q 543.00 201.39 539.79 201.94
  Q 536.39 202.52 532.92 202.46
  Q 531.24 202.43 529.62 202.60
  Q 528.02 202.78 526.38 202.74
  Q 519.19 202.56 512.19 203.29
  Q 511.02 203.41 509.98 203.91
  Q 508.74 204.50 507.53 203.79
  Q 506.99 203.47 506.40 203.70
  Q 505.25 204.16 503.97 203.90
  Q 502.64 203.62 501.33 203.75
  Q 497.72 204.12 494.32 204.46
  C 492.13 204.68 490.12 204.57 487.96 205.14
  C 485.35 205.82 482.70 205.51 480.06 205.93
  C 477.79 206.29 475.13 205.73 472.95 206.44
  Q 471.78 206.83 470.55 206.88
  Q 467.38 207.03 466.90 207.11
  Q 462.72 207.81 458.67 208.12
  Q 453.31 208.53 450.36 208.99
  Q 445.87 209.68 440.91 210.48
  Q 440.39 210.57 439.10 210.51
  Q 438.22 210.46 437.32 210.61
  Q 433.21 211.30 429.30 211.99
  Q 428.91 212.05 428.70 212.39
  Q 428.55 212.61 428.28 212.65
  Q 425.41 213.05 423.01 213.71
  C 421.91 214.01 420.96 213.68 419.92 214.06
  Q 418.74 214.50 417.57 214.66
  C 416.06 214.86 414.69 214.95 413.25 215.57
  C 410.78 216.63 408.12 216.77 405.78 218.08
  Q 403.76 219.21 401.70 219.71
  Q 400.06 220.11 398.27 219.59
  Q 397.81 219.46 397.39 219.66
  L 392.93 221.80
  Q 402.88 211.53 410.73 204.97
  Q 419.84 197.35 432.40 189.15
  Q 439.87 184.27 448.97 179.94
  Q 464.94 172.35 479.39 167.57
  Q 525.67 152.26 575.32 159.58
  Q 585.10 161.02 594.52 163.63
  C 623.10 171.52 649.70 184.03 672.25 202.69
  Z"
/>
<path fill="#2280ac" d="
  M 672.25 202.69
  C 683.58 212.25 694.09 222.72 704.33 233.42
  C 706.43 235.61 708.25 236.76 705.62 239.37
  Q 685.13 259.74 664.25 279.80
  Q 664.04 278.69 665.53 277.80
  Q 666.16 277.42 665.48 277.13
  Q 664.89 276.88 664.43 277.31
  A 0.33 0.31 59.2 0 0 664.35 277.65
  Q 664.44 277.90 664.15 277.95
  Q 663.89 278.00 663.65 277.87
  Q 662.34 277.18 661.91 275.65
  Q 661.75 275.11 661.20 275.15
  Q 656.23 275.46 651.23 273.97
  Q 650.87 273.87 650.60 273.63
  A 1.31 1.28 -22.5 0 0 649.80 273.31
  Q 648.50 273.26 647.13 273.26
  Q 645.80 273.26 644.46 272.96
  Q 642.81 272.59 641.23 273.50
  Q 640.85 273.72 640.43 273.61
  Q 639.50 273.36 638.49 273.41
  Q 637.60 273.46 636.49 273.43
  Q 635.19 273.39 634.03 274.16
  Q 633.52 274.50 632.92 274.37
  Q 631.91 274.15 631.09 273.47
  A 1.56 1.40 40.0 0 0 628.99 273.54
  Q 628.74 273.84 628.71 274.75
  Q 621.29 267.86 613.33 261.70
  C 586.62 241.04 552.72 232.16 519.52 239.36
  Q 489.24 245.94 465.91 266.37
  Q 463.09 264.94 460.38 265.68
  Q 457.81 266.39 456.20 266.40
  A 3.42 3.34 -53.8 0 0 455.24 266.56
  C 453.82 267.02 452.55 266.81 451.11 266.98
  Q 448.05 267.36 445.74 268.01
  Q 442.04 269.06 438.31 269.80
  Q 434.47 270.57 430.81 271.57
  Q 427.40 272.51 424.14 272.64
  Q 422.80 272.70 421.48 273.08
  Q 420.17 273.46 418.64 273.65
  Q 402.60 275.69 382.75 279.60
  Q 379.51 280.24 376.21 280.35
  C 374.81 280.40 373.84 280.91 372.56 281.38
  Q 371.27 281.86 369.93 282.04
  Q 368.93 282.17 368.07 282.67
  C 366.12 283.81 363.78 282.81 362.02 284.09
  C 360.79 284.98 359.82 285.75 358.33 286.25
  Q 357.11 286.66 356.14 287.72
  Q 355.80 288.10 355.28 288.10
  L 350.99 288.10
  Q 350.71 288.10 350.82 288.36
  Q 350.91 288.59 350.77 288.76
  Q 350.27 289.35 350.00 289.05
  C 353.90 277.75 360.05 266.94 366.49 256.22
  Q 377.80 237.38 392.93 221.80
  L 397.39 219.66
  Q 397.81 219.46 398.27 219.59
  Q 400.06 220.11 401.70 219.71
  Q 403.76 219.21 405.78 218.08
  C 408.12 216.77 410.78 216.63 413.25 215.57
  C 414.69 214.95 416.06 214.86 417.57 214.66
  Q 418.74 214.50 419.92 214.06
  C 420.96 213.68 421.91 214.01 423.01 213.71
  Q 425.41 213.05 428.28 212.65
  Q 428.55 212.61 428.70 212.39
  Q 428.91 212.05 429.30 211.99
  Q 433.21 211.30 437.32 210.61
  Q 438.22 210.46 439.10 210.51
  Q 440.39 210.57 440.91 210.48
  Q 445.87 209.68 450.36 208.99
  Q 453.31 208.53 458.67 208.12
  Q 462.72 207.81 466.90 207.11
  Q 467.38 207.03 470.55 206.88
  Q 471.78 206.83 472.95 206.44
  C 475.13 205.73 477.79 206.29 480.06 205.93
  C 482.70 205.51 485.35 205.82 487.96 205.14
  C 490.12 204.57 492.13 204.68 494.32 204.46
  Q 497.72 204.12 501.33 203.75
  Q 502.64 203.62 503.97 203.90
  Q 505.25 204.16 506.40 203.70
  Q 506.99 203.47 507.53 203.79
  Q 508.74 204.50 509.98 203.91
  Q 511.02 203.41 512.19 203.29
  Q 519.19 202.56 526.38 202.74
  Q 528.02 202.78 529.62 202.60
  Q 531.24 202.43 532.92 202.46
  Q 536.39 202.52 539.79 201.94
  Q 543.00 201.39 546.33 201.34
  Q 550.27 201.28 554.24 201.44
  Q 562.20 201.76 570.31 201.45
  Q 574.91 201.27 581.00 201.73
  Q 582.34 201.83 583.20 202.01
  Q 584.37 202.25 585.45 202.29
  Q 594.59 202.57 604.42 202.94
  Q 605.18 202.97 605.93 203.16
  Q 606.75 203.38 607.59 203.32
  Q 610.76 203.07 613.73 202.95
  C 615.01 202.89 616.23 203.41 617.47 202.97
  Q 618.22 202.70 619.03 202.65
  Q 621.75 202.47 624.41 203.06
  Q 625.71 203.35 626.92 202.83
  A 1.48 1.45 -49.2 0 1 627.86 202.75
  Q 630.95 203.52 633.26 203.47
  Q 636.06 203.42 638.82 203.87
  Q 639.76 204.03 640.65 203.97
  C 641.55 203.92 642.25 203.55 643.19 203.67
  Q 651.15 204.74 657.85 202.50
  Q 658.34 202.34 658.83 202.48
  Q 661.72 203.26 662.77 201.10
  Q 663.04 200.56 663.16 201.15
  Q 663.29 201.77 663.90 201.66
  A 0.60 0.60 0.0 0 0 664.39 201.07
  Q 664.38 200.73 664.09 200.69
  Q 663.68 200.63 664.08 200.49
  Q 664.74 200.27 665.24 200.60
  Q 665.55 200.80 665.91 200.79
  Q 666.30 200.77 666.65 200.68
  Q 667.34 200.51 667.04 201.14
  Q 666.93 201.37 667.18 201.46
  A 1.85 1.69 44.5 0 0 668.28 201.50
  Q 669.14 201.23 669.48 202.06
  Q 669.67 202.51 670.14 202.36
  Q 670.66 202.19 670.68 202.75
  Q 670.71 203.37 671.32 203.25
  Q 671.72 203.17 672.25 202.69
  Z"
/>
<path fill="#196b94" d="
  M 465.91 266.37
  C 452.16 278.45 441.78 293.54 434.26 309.57
  Q 429.05 320.68 426.25 334.03
  A 0.56 0.56 0.0 0 0 426.80 334.71
  L 738.26 334.74
  A 1.14 1.13 -0.8 0 1 739.39 335.83
  L 740.42 364.11
  Q 702.54 363.78 664.75 363.75
  Q 598.90 363.69 529.50 363.81
  Q 519.19 363.83 509.50 363.75
  C 479.95 363.51 451.24 363.87 422.01 363.98
  Q 413.18 364.01 402.00 363.74
  Q 382.93 363.30 372.75 363.42
  Q 346.66 363.74 334.27 363.26
  Q 335.42 324.33 350.00 289.05
  Q 350.27 289.35 350.77 288.76
  Q 350.91 288.59 350.82 288.36
  Q 350.71 288.10 350.99 288.10
  L 355.28 288.10
  Q 355.80 288.10 356.14 287.72
  Q 357.11 286.66 358.33 286.25
  C 359.82 285.75 360.79 284.98 362.02 284.09
  C 363.78 282.81 366.12 283.81 368.07 282.67
  Q 368.93 282.17 369.93 282.04
  Q 371.27 281.86 372.56 281.38
  C 373.84 280.91 374.81 280.40 376.21 280.35
  Q 379.51 280.24 382.75 279.60
  Q 402.60 275.69 418.64 273.65
  Q 420.17 273.46 421.48 273.08
  Q 422.80 272.70 424.14 272.64
  Q 427.40 272.51 430.81 271.57
  Q 434.47 270.57 438.31 269.80
  Q 442.04 269.06 445.74 268.01
  Q 448.05 267.36 451.11 266.98
  C 452.55 266.81 453.82 267.02 455.24 266.56
  A 3.42 3.34 -53.8 0 1 456.20 266.40
  Q 457.81 266.39 460.38 265.68
  Q 463.09 264.94 465.91 266.37
  Z"
/>
<path fill="#196b94" d="
  M 664.25 279.80
  L 648.16 296.18
  A 1.37 1.37 0.0 0 1 646.09 296.05
  C 640.38 288.55 635.38 281.22 628.71 274.75
  Q 628.74 273.84 628.99 273.54
  A 1.56 1.40 40.0 0 1 631.09 273.47
  Q 631.91 274.15 632.92 274.37
  Q 633.52 274.50 634.03 274.16
  Q 635.19 273.39 636.49 273.43
  Q 637.60 273.46 638.49 273.41
  Q 639.50 273.36 640.43 273.61
  Q 640.85 273.72 641.23 273.50
  Q 642.81 272.59 644.46 272.96
  Q 645.80 273.26 647.13 273.26
  Q 648.50 273.26 649.80 273.31
  A 1.31 1.28 -22.5 0 1 650.60 273.63
  Q 650.87 273.87 651.23 273.97
  Q 656.23 275.46 661.20 275.15
  Q 661.75 275.11 661.91 275.65
  Q 662.34 277.18 663.65 277.87
  Q 663.89 278.00 664.15 277.95
  Q 664.44 277.90 664.35 277.65
  A 0.33 0.31 59.2 0 1 664.43 277.31
  Q 664.89 276.88 665.48 277.13
  Q 666.16 277.42 665.53 277.80
  Q 664.04 278.69 664.25 279.80
  Z"
/>
<path fill="#144f72" d="
  M 334.27 363.26
  Q 346.66 363.74 372.75 363.42
  Q 382.93 363.30 402.00 363.74
  Q 413.18 364.01 422.01 363.98
  C 451.24 363.87 479.95 363.51 509.50 363.75
  Q 519.19 363.83 529.50 363.81
  Q 598.90 363.69 664.75 363.75
  Q 702.54 363.78 740.42 364.11
  L 740.34 383.31
  Q 734.77 383.78 729.23 383.62
  Q 718.36 383.30 718.26 383.30
  C 694.37 383.27 670.85 382.84 647.26 383.14
  Q 621.56 383.48 591.52 383.18
  C 587.12 383.13 582.32 383.56 577.83 383.53
  C 496.73 383.01 416.85 383.69 336.25 383.43
  Q 334.58 383.42 334.29 384.95
  L 334.27 363.26
  Z"
/>
<path fill="#13364b" d="
  M 740.34 383.31
  L 739.86 404.25
  A 1.56 1.55 -89.2 0 1 738.31 405.77
  L 426.94 405.73
  Q 426.22 405.73 426.39 406.44
  Q 430.88 424.39 439.87 440.34
  Q 458.78 473.90 493.26 491.18
  Q 502.79 495.95 511.83 498.35
  C 552.90 509.25 597.24 497.01 627.52 467.23
  Q 637.38 457.53 646.06 446.68
  A 0.92 0.91 41.6 0 1 647.41 446.60
  Q 648.38 447.55 649.39 448.55
  Q 673.87 472.94 704.32 502.17
  Q 705.41 503.22 706.42 504.38
  A 0.67 0.66 -45.4 0 1 706.42 505.25
  Q 696.68 516.54 685.92 526.74
  Q 654.51 556.54 612.27 571.25
  Q 588.27 579.61 565.84 581.81
  C 539.27 584.41 512.48 583.05 487.43 575.91
  C 452.17 565.85 418.56 547.31 393.21 521.10
  Q 382.73 510.26 373.47 497.81
  Q 366.80 488.84 362.51 481.30
  Q 345.81 451.95 338.96 421.00
  Q 335.33 404.55 334.29 384.95
  Q 334.58 383.42 336.25 383.43
  C 416.85 383.69 496.73 383.01 577.83 383.53
  C 582.32 383.56 587.12 383.13 591.52 383.18
  Q 621.56 383.48 647.26 383.14
  C 670.85 382.84 694.37 383.27 718.26 383.30
  Q 718.36 383.30 729.23 383.62
  Q 734.77 383.78 740.34 383.31
  Z"
/>
<path fill="#13364b" d="
  M 657.00 735.48
  C 664.44 734.06 670.14 729.19 674.80 723.32
  A 0.70 0.70 0.0 0 1 675.80 723.23
  L 690.07 735.41
  A 1.50 1.49 -52.9 0 1 690.34 737.37
  C 675.76 759.48 643.45 763.79 622.81 747.52
  C 613.45 740.14 606.20 729.15 604.26 717.48
  Q 603.17 710.90 603.85 702.61
  C 605.18 686.17 615.83 670.13 630.98 663.01
  Q 643.16 657.28 656.23 658.56
  Q 666.68 659.58 674.26 664.20
  Q 683.59 669.87 689.67 677.52
  Q 690.17 678.14 689.59 678.67
  L 675.96 691.35
  A 0.86 0.86 0.0 0 1 674.73 691.28
  C 665.93 681.11 653.87 676.11 640.92 681.90
  C 629.19 687.14 623.82 699.24 625.06 711.61
  Q 625.98 720.67 632.37 727.41
  Q 642.63 738.24 657.00 735.48
  Z"
/>
<path fill="#13364b" d="
  M 751.79 755.83
  C 737.17 759.87 719.90 756.95 707.68 747.94
  Q 705.69 746.48 704.44 744.33
  Q 703.87 743.35 704.58 742.47
  L 715.42 728.99
  A 1.02 1.02 0.0 0 1 716.88 728.85
  Q 723.74 734.67 732.34 736.84
  C 738.32 738.35 746.24 737.67 751.53 733.80
  C 755.40 730.96 755.14 725.45 751.01 722.98
  C 748.01 721.17 744.38 719.96 740.85 719.27
  C 733.96 717.94 726.11 716.70 720.37 713.88
  C 708.24 707.92 703.70 697.15 706.00 684.16
  C 708.43 670.46 719.06 661.10 732.85 659.02
  Q 753.87 655.85 768.92 669.07
  Q 770.44 670.41 771.48 672.30
  Q 772.03 673.29 771.23 674.08
  L 758.56 686.67
  A 0.73 0.73 0.0 0 1 757.49 686.63
  C 750.58 678.52 738.82 675.26 729.77 681.31
  C 724.09 685.10 725.22 691.89 730.80 694.92
  Q 734.05 696.67 738.29 697.67
  C 750.16 700.44 766.60 702.90 772.55 715.00
  Q 775.94 721.90 774.94 730.05
  C 773.33 743.19 764.32 752.36 751.79 755.83
  Z"
/>
<path fill="#13364b" d="
  M 311.25 719.01
  L 311.25 736.48
  A 0.26 0.26 0.0 0 0 311.51 736.74
  L 354.31 736.81
  Q 357.31 736.82 357.30 739.81
  L 357.27 753.42
  A 3.34 3.34 0.0 0 1 353.90 756.76
  Q 326.62 756.48 297.73 756.59
  C 294.16 756.60 290.80 756.57 290.79 752.06
  Q 290.63 703.67 291.02 665.31
  Q 291.07 660.44 295.95 660.43
  L 353.03 660.30
  A 2.98 2.98 0.0 0 1 356.01 663.28
  L 355.97 676.70
  A 3.40 3.39 -0.0 0 1 352.58 680.08
  L 311.86 680.12
  Q 311.26 680.12 311.26 680.73
  L 311.25 698.24
  A 0.49 0.49 0.0 0 0 311.74 698.73
  L 344.24 698.72
  A 0.49 0.49 0.0 0 1 344.73 699.21
  Q 344.80 708.02 344.65 715.59
  Q 344.64 716.44 344.38 717.29
  A 1.46 1.46 0.0 0 1 342.99 718.31
  L 311.99 718.27
  Q 311.25 718.27 311.25 719.01
  Z"
/>
<path fill="#13364b" d="
  M 398.06 680.24
  L 373.46 680.27
  A 2.85 2.84 89.6 0 1 370.62 677.46
  L 370.47 663.88
  Q 370.43 660.44 373.87 660.44
  L 444.99 660.34
  Q 448.41 660.34 448.40 663.75
  L 448.35 677.62
  A 2.70 2.70 0.0 0 1 445.63 680.32
  L 419.80 680.16
  A 0.79 0.79 0.0 0 0 419.00 680.95
  L 419.00 753.32
  A 3.20 3.20 0.0 0 1 415.80 756.52
  L 402.53 756.50
  A 3.49 3.49 0.0 0 1 399.05 753.02
  L 398.88 681.06
  Q 398.88 680.24 398.06 680.24
  Z"
/>
<path fill="#13364b" d="
  M 483.73 718.28
  L 483.80 754.00
  A 2.57 2.57 0.0 0 1 481.25 756.58
  L 467.62 756.66
  A 4.05 4.04 -0.2 0 1 463.54 752.62
  L 463.42 663.77
  A 3.30 3.30 0.0 0 1 466.73 660.47
  L 481.27 660.53
  A 2.50 2.50 0.0 0 1 483.76 663.02
  L 483.89 696.29
  A 0.89 0.88 -0.3 0 0 484.79 697.17
  L 520.77 697.01
  A 0.78 0.77 89.6 0 0 521.53 696.23
  L 521.43 663.84
  Q 521.42 660.36 524.91 660.48
  Q 531.48 660.70 538.29 660.24
  A 3.00 2.99 87.7 0 1 541.49 663.20
  Q 541.97 708.72 541.48 753.12
  A 3.59 3.59 0.0 0 1 537.84 756.67
  L 524.97 756.47
  A 3.72 3.72 0.0 0 1 521.30 752.72
  L 521.55 718.03
  A 0.52 0.51 0.0 0 0 521.03 717.52
  L 484.47 717.54
  Q 483.72 717.54 483.73 718.28
  Z"
/>
<rect fill="#13364b" x="563.74" y="660.55" width="20.28" height="95.94" rx="3.40"/>
<path fill="#13364b" d="
  M 752.23 828.93
  Q 748.32 829.43 744.00 829.15
  A 1.23 1.23 0.0 0 1 742.86 827.92
  L 742.87 821.75
  Q 742.87 820.68 743.95 820.65
  Q 750.34 820.45 757.44 819.78
  Q 759.03 819.62 761.71 819.88
  Q 762.27 819.94 762.27 820.50
  L 762.28 836.97
  Q 762.28 837.47 761.99 837.89
  Q 760.81 839.62 758.57 841.03
  Q 746.02 848.90 733.92 843.27
  C 726.82 839.96 721.90 832.96 721.31 825.15
  Q 720.28 811.66 731.78 804.57
  C 741.24 798.74 753.36 801.13 761.19 808.84
  A 0.76 0.75 48.9 0 1 761.12 809.98
  L 754.97 814.66
  Q 754.41 815.08 753.88 814.62
  C 749.39 810.67 743.21 809.33 737.71 812.17
  C 730.77 815.76 728.27 823.43 732.78 830.30
  C 736.58 836.09 742.86 837.00 749.13 835.37
  A 5.21 5.19 -83.5 0 0 752.46 832.71
  Q 752.82 832.00 753.48 830.72
  Q 754.54 828.64 752.23 828.93
  Z"
/>
<path fill="#13364b" d="
  M 374.01 830.26
  Q 374.69 831.92 375.33 830.25
  L 385.46 803.86
  A 2.06 2.06 0.0 0 1 387.19 802.55
  Q 391.22 802.14 395.25 802.54
  A 1.34 1.34 0.0 0 1 396.34 804.43
  Q 387.78 823.09 380.61 841.75
  Q 379.89 843.61 378.35 844.80
  Q 377.92 845.13 377.37 845.14
  L 372.87 845.18
  A 3.05 3.03 -11.9 0 1 370.07 843.37
  L 353.29 805.19
  Q 351.94 802.12 355.29 802.12
  L 360.79 802.12
  Q 362.46 802.12 363.10 803.67
  L 374.01 830.26
  Z"
/>
<path fill="#13364b" d="
  M 558.58 837.99
  L 556.36 843.55
  Q 555.92 844.68 554.70 844.76
  Q 551.35 844.97 548.50 844.70
  Q 545.63 844.43 546.73 841.76
  Q 550.83 831.78 555.26 822.25
  C 558.23 815.84 560.71 809.19 563.41 802.78
  A 1.21 1.20 -78.6 0 1 564.52 802.04
  L 570.77 802.05
  Q 572.28 802.05 572.81 803.47
  Q 574.66 808.44 576.53 812.59
  Q 583.11 827.12 590.07 842.30
  Q 591.06 844.45 588.71 844.66
  Q 585.68 844.94 581.73 844.81
  Q 580.48 844.76 579.87 843.68
  L 576.54 837.80
  A 1.11 1.10 75.0 0 0 575.58 837.24
  L 559.63 837.28
  A 1.13 1.12 10.7 0 0 558.58 837.99
  Z
  M 562.99 827.76
  A 0.37 0.37 0.0 0 0 563.33 828.27
  L 573.49 828.34
  A 0.37 0.37 0.0 0 0 573.82 827.79
  L 568.04 817.13
  A 0.37 0.37 0.0 0 0 567.37 817.17
  L 562.99 827.76
  Z"
/>
<path fill="#13364b" d="
  M 317.34 819.05
  Q 317.35 819.74 318.05 819.74
  L 333.24 819.75
  Q 333.99 819.75 333.99 820.50
  L 334.00 827.50
  A 1.01 1.00 -0.3 0 1 333.00 828.50
  L 317.89 828.50
  Q 317.27 828.50 317.27 829.11
  L 317.27 835.29
  Q 317.27 836.06 318.04 836.05
  L 339.60 835.85
  Q 341.36 835.84 341.33 837.60
  L 341.26 842.23
  Q 341.22 844.93 338.51 844.93
  L 309.97 844.90
  A 2.68 2.68 0.0 0 1 307.29 842.22
  L 307.27 804.07
  A 1.66 1.66 0.0 0 1 308.93 802.41
  L 337.60 802.53
  Q 340.16 802.54 340.36 805.09
  Q 340.53 807.08 340.37 809.40
  Q 340.22 811.59 338.02 811.59
  L 318.10 811.57
  Q 317.26 811.57 317.27 812.40
  L 317.34 819.05
  Z"
/>
<path fill="#13364b" d="
  M 415.20 837.36
  A 1.11 1.11 0.0 0 0 414.18 838.03
  L 411.65 843.95
  Q 411.19 845.02 410.04 845.10
  Q 406.07 845.39 403.36 844.86
  A 1.66 1.65 -73.9 0 1 402.14 842.64
  Q 406.42 831.49 408.28 827.47
  Q 414.34 814.41 418.87 802.82
  Q 419.10 802.24 419.72 802.24
  L 427.17 802.25
  A 1.15 1.14 80.3 0 1 428.25 803.02
  C 429.77 807.26 431.21 811.42 433.22 815.53
  Q 439.56 828.48 445.90 842.50
  A 1.35 1.35 0.0 0 1 444.85 844.39
  Q 440.90 844.94 437.63 844.51
  C 435.07 844.18 434.03 840.37 433.28 838.29
  A 1.59 1.59 0.0 0 0 431.77 837.23
  L 415.20 837.36
  Z
  M 422.68 816.87
  C 421.65 820.34 420.04 824.22 418.20 827.61
  A 0.32 0.32 0.0 0 0 418.48 828.08
  L 428.72 828.22
  A 0.39 0.39 0.0 0 0 429.08 827.65
  L 423.70 816.78
  Q 423.07 815.52 422.68 816.87
  Z"
/>
<path fill="#13364b" d="
  M 468.62 835.42
  Q 469.44 835.64 470.31 835.64
  Q 477.86 835.61 485.85 835.48
  Q 488.92 835.43 488.78 838.50
  L 488.65 841.48
  Q 488.49 844.94 485.02 844.95
  L 460.46 844.98
  A 2.29 2.29 0.0 0 1 458.16 842.71
  L 457.95 804.32
  Q 457.94 802.33 459.93 802.33
  L 465.73 802.32
  Q 467.91 802.31 467.91 804.48
  L 467.96 834.56
  A 0.90 0.89 7.7 0 0 468.62 835.42
  Z"
/>
<path fill="#13364b" d="
  M 525.04 831.67
  Q 526.16 829.35 526.20 826.85
  Q 526.35 816.08 526.21 804.88
  Q 526.17 802.26 528.79 802.25
  L 533.74 802.22
  Q 535.76 802.21 535.76 804.23
  Q 535.72 817.44 535.74 827.53
  C 535.76 839.38 526.12 846.66 514.79 845.21
  C 502.80 843.66 497.80 833.37 497.94 822.38
  Q 498.06 812.81 497.99 804.24
  Q 497.97 802.20 500.01 802.23
  Q 505.75 802.30 505.87 802.30
  Q 507.80 802.33 507.83 804.23
  Q 508.02 814.22 507.95 824.95
  C 507.92 829.28 509.97 833.24 513.88 835.09
  C 517.77 836.92 523.05 835.81 525.04 831.67
  Z"
/>
<path fill="#13364b" d="
  M 604.12 811.60
  Q 599.64 812.21 594.67 812.02
  Q 591.83 811.91 591.86 809.07
  L 591.92 804.77
  Q 591.95 802.24 594.48 802.26
  L 625.60 802.44
  Q 627.99 802.45 628.00 804.85
  L 628.03 809.25
  Q 628.04 812.04 625.25 812.04
  L 615.00 812.00
  A 0.51 0.51 0.0 0 0 614.49 812.51
  Q 614.46 826.84 614.94 841.84
  Q 615.03 844.66 611.96 844.93
  C 609.38 845.16 604.78 845.59 604.79 841.79
  Q 604.81 825.62 604.75 812.15
  Q 604.75 811.52 604.12 811.60
  Z"
/>
<rect fill="#13364b" x="-5.06" y="-21.51" transform="translate(646.07,823.64) rotate(-0.1)" width="10.12" height="43.02" rx="3.06"/>
<path fill="#13364b" d="
  M 677.98 821.38
  Q 678.03 830.51 678.03 841.89
  C 678.03 845.93 672.89 845.38 670.39 845.14
  A 2.72 2.72 0.0 0 1 667.93 842.43
  L 667.89 803.79
  A 1.57 1.57 0.0 0 1 669.46 802.22
  L 674.99 802.22
  A 1.51 1.50 -18.7 0 1 676.18 802.80
  Q 685.83 815.01 696.13 826.27
  Q 697.50 827.77 697.50 825.74
  L 697.50 804.29
  Q 697.50 802.33 699.46 802.34
  L 705.31 802.37
  Q 707.34 802.38 707.34 804.40
  Q 707.34 822.17 707.53 840.72
  C 707.56 843.17 707.08 845.17 704.17 845.45
  C 702.28 845.62 699.55 845.89 698.24 844.28
  Q 688.71 832.49 679.30 820.91
  Q 677.97 819.27 677.98 821.38
  Z"
/>
<path fill="#fefffc" d="
  M 418.20 827.61
  C 420.04 824.22 421.65 820.34 422.68 816.87
  Q 423.07 815.52 423.70 816.78
  L 429.08 827.65
  A 0.39 0.39 0.0 0 1 428.72 828.22
  L 418.48 828.08
  A 0.32 0.32 0.0 0 1 418.20 827.61
  Z"
/>
<path fill="#fefffc" d="
  M 562.99 827.76
  L 567.37 817.17
  A 0.37 0.37 0.0 0 1 568.04 817.13
  L 573.82 827.79
  A 0.37 0.37 0.0 0 1 573.49 828.34
  L 563.33 828.27
  A 0.37 0.37 0.0 0 1 562.99 827.76
  Z"
/>
</svg>
