<?xml version="1.0" standalone="no"?><!DOCTYPE svg PUBLIC "-//W3C//DTD SVG 1.1//EN" "http://www.w3.org/Graphics/SVG/1.1/DTD/svg11.dtd"><svg t="1705061827535" class="icon" viewBox="0 0 1024 1024" version="1.1" xmlns="http://www.w3.org/2000/svg" p-id="18936" xmlns:xlink="http://www.w3.org/1999/xlink" width="200" height="200"><path d="M532.4 887c-10.8 0.4-21.8 0.7-32.8 0.7-84.7 0-163.8-13-222.7-36.6-55.5-22.2-75.2-46.8-75.2-61.1v-81.3c15.7 9.5 33.7 18.2 54 26 66.4 25.4 152.8 39.4 243.4 39.4 19.9 0 36-16.1 36-36s-16.1-36-36-36c-82 0-159.3-12.3-217.6-34.6-54.3-20.8-76.7-44.5-79.8-59.3v-84.9c12.3 7.4 26.5 14.7 43.1 21.5 67.8 28.2 158.1 43.8 254.3 43.8 90.6 0 177.2-14 243.8-39.4 24.8-9.5 46.3-20.3 64.2-32.4 6.6 7 15.9 11.3 26.2 11.3 19.9 0 36-16.1 36-36v-64.8c0.3-2.8 0.4-5.7 0.4-8.5s-0.1-5.7-0.4-8.5V234c0-2.2-0.2-4.4-0.6-6.5-2-32.5-21.1-57.3-37.3-72.6-20.1-19.1-48-35.8-82.9-49.8-67.2-26.9-155.8-41.7-249.4-41.7s-182.2 14.8-249.4 41.7c-34.9 14-62.8 30.7-82.9 49.8-31 29.3-37.5 58.7-37.5 78.2 0 2.8 0.1 5.7 0.4 8.5v168.6c-0.3 2.8-0.4 5.7-0.4 8.5s0.1 5.7 0.4 8.5v168.5c-0.3 2.8-0.4 5.7-0.4 8.5s0.1 5.7 0.4 8.5v177.6c0.1 19.5 6.7 48.6 37.5 77.7 20.1 19 48 35.8 82.9 49.8 67.2 26.9 155.8 41.7 249.4 41.7 11.9 0 24-0.2 35.7-0.7 19.9-0.8 35.3-17.6 34.5-37.4-0.7-19.8-17.4-35.2-37.3-34.4z m184.9-405.1c-58.6 22.4-136 34.7-218.1 34.7-85.7 0-168.3-13.9-226.7-38.2-47.9-19.9-67.8-41.5-70.7-55.7v-85.1c12.3 7.5 26.7 14.7 43.4 21.7 67.8 28.1 158 43.6 254 43.6 96.2 0 186.5-15.5 254.3-43.7 16.3-6.8 31-14.2 44-22.1v85.6c-3.2 14.7-25.7 38.4-80.2 59.2zM276.5 172.1c58.9-23.6 138-36.6 222.7-36.6s163.8 13 222.7 36.6c55 22 74.8 46.4 75.2 60.8v0.6c-0.3 18.1-28.2 41.3-71.2 59.2-58.4 24.3-141 38.2-226.6 38.2-85.5 0-168.1-13.9-226.4-38.1-48.1-20-68.1-41.5-71-55.7v-3h-0.4v-0.9c-0.1-14.3 19.5-38.9 75-61.1z" fill="#19506d" p-id="18937"></path><path d="M705.3 409.5a29.3 31.3 0 1 0 58.6 0 29.3 31.3 0 1 0-58.6 0Z" fill="#19506d" p-id="18938"></path><path d="M930.8 734h-17.7c-3.8-16-10.1-30.9-18.6-44.4l12.6-12.6c11.5-11.5 11.5-30.3 0-41.8l-5.9-5.9c-11.5-11.5-30.3-11.5-41.8 0l-12.6 12.6c-13.5-8.5-28.5-14.8-44.4-18.6v-17.7c0-16.3-13.3-29.6-29.6-29.6h-8.4c-16.3 0-29.6 13.3-29.6 29.6v17.5c-16.1 3.7-31.2 10-44.8 18.4l-12.2-12.2c-11.5-11.5-30.3-11.5-41.8 0l-5.9 5.9c-11.5 11.5-11.5 30.3 0 41.8l12 12c-8.6 13.7-15.1 28.9-18.9 45.1h-16.7c-16.3 0-29.6 13.3-29.6 29.6v8.4c0 16.3 13.3 29.6 29.6 29.6H623c3.7 16.3 10.2 31.6 18.8 45.5L630 858.6c-11.5 11.5-11.5 30.3 0 41.8l5.9 5.9c11.5 11.5 30.3 11.5 41.8 0l11.6-11.6c13.8 8.6 29.1 15.1 45.5 18.8V930c0 16.3 13.3 29.6 29.6 29.6h8.4c16.3 0 29.6-13.3 29.6-29.6v-16.7c16.2-3.8 31.4-10.3 45.1-18.9l12 12c11.5 11.5 30.3 11.5 41.8 0l5.9-5.9c11.5-11.5 11.5-30.3 0-41.8L895 846.5c8.4-13.6 14.7-28.7 18.4-44.8h17.5c16.3 0 29.6-13.3 29.6-29.6v-8.4c-0.2-16.4-13.5-29.7-29.7-29.7zM768.1 845.3c-42.5 0-77-34.5-77-77s34.5-77 77-77 77 34.5 77 77-34.6 77-77 77z" fill="#19506d" p-id="18939"></path></svg>