<?xml version="1.0" standalone="no"?><!DOCTYPE svg PUBLIC "-//W3C//DTD SVG 1.1//EN" "http://www.w3.org/Graphics/SVG/1.1/DTD/svg11.dtd"><svg t="1705061867779" class="icon" viewBox="0 0 1025 1024" version="1.1" xmlns="http://www.w3.org/2000/svg" p-id="20036" xmlns:xlink="http://www.w3.org/1999/xlink" width="200.1953125" height="200"><path d="M1002.331307 372.622222c-31.288889-36.977778-82.488889-42.666667-119.466667-11.377778l-372.622222-227.555555c-2.844444-17.066667-8.533333-31.288889-19.911111-45.511111-31.288889-36.977778-82.488889-42.666667-119.466667-11.377778-17.066667 14.222222-25.6 34.133333-28.444444 54.044444L140.46464 250.311111c-22.755556-19.911111-51.2-25.6-79.644444-17.066667-45.511111 14.222222-71.111111 59.733333-56.888889 105.244445 8.533333 34.133333 39.822222 56.888889 71.111111 59.733333l48.355555 213.333334C100.642418 625.777778 83.575751 654.222222 83.575751 682.666667c0 48.355556 36.977778 85.333333 85.333333 85.333333 19.911111 0 39.822222-8.533333 54.044445-19.911111l201.955555 119.466667c0 5.688889-2.844444 11.377778-2.844444 17.066666 0 48.355556 36.977778 85.333333 85.333333 85.333334s85.333333-36.977778 85.333334-85.333334c0-14.222222-2.844444-28.444444-8.533334-39.822222l315.733334-338.488889c28.444444 11.377778 62.577778 8.533333 88.177777-11.377778 39.822222-31.288889 45.511111-85.333333 14.222223-122.311111zM854.420196 475.022222L544.375751 804.977778c-8.533333-2.844444-14.222222-5.688889-22.755555-5.688889l-45.511112-213.333333c34.133333-17.066667 59.733333-51.2 62.577778-93.866667l315.733334-17.066667zM456.197973 819.2l-201.955555-119.466667c0-5.688889 2.844444-11.377778 2.844444-17.066666 0-8.533333-2.844444-17.066667-5.688889-25.6l105.244445-85.333334c17.066667 14.222222 39.822222 22.755556 65.422222 22.755556l45.511111 213.333333-11.377778 11.377778z m-275.911111-219.022222l-48.355555-213.333334 184.888889 79.644445c0 5.688889-2.844444 11.377778-2.844445 17.066667 0 17.066667 2.844444 31.288889 8.533333 45.511111l-105.244444 82.488889c-11.377778-5.688889-22.755556-11.377778-36.977778-11.377778z m-11.377778-301.511111l187.733334-108.088889c2.844444 2.844444 2.844444 5.688889 5.688889 8.533333 11.377778 11.377778 22.755556 19.911111 36.977777 25.6v150.755556c-25.6 5.688889-45.511111 19.911111-59.733333 39.822222l-170.666667-73.955556c0-14.222222 2.844444-28.444444 0-42.666666z m327.111112-108.088889L854.420196 409.6v8.533333l-324.266667 19.911111c-14.222222-31.288889-42.666667-54.044444-73.955556-62.577777V224.711111c8.533333-2.844444 17.066667-8.533333 25.6-14.222222 5.688889-5.688889 11.377778-11.377778 14.222223-19.911111z" p-id="20037" fill="#19506d"></path></svg>